<mxfile modified="2020-03-13T11:12:41.160Z" host="app.diagrams.net" agent="Mozilla/5.0 (Macintosh; Intel Mac OS X 10.15; rv:73.0) Gecko/20100101 Firefox/73.0" etag="AR4WkQVguZpCwshDGc6D" version="12.8.4" type="github">
  <diagram id="yuxzbyRYRNna8c080PGl" name="Page-1">
    <mxGraphModel dx="1426" dy="1317" grid="1" gridSize="10" guides="1" tooltips="1" connect="1" arrows="1" fold="1" page="1" pageScale="1" pageWidth="1400" pageHeight="550" math="0" shadow="0">
      <root>
        <mxCell id="0" />
        <mxCell id="1" parent="0" />
        <mxCell id="WwHgvZpowAIh_IYd4Kne-26" value="" style="rounded=0;whiteSpace=wrap;html=1;strokeColor=#666666;strokeWidth=4;align=left;dashed=1;fillColor=none;" parent="1" vertex="1">
          <mxGeometry x="48.5" y="-520" width="1301.5" height="490" as="geometry" />
        </mxCell>
        <mxCell id="SLsqdyoGx3VEHhg5HpJQ-23" style="edgeStyle=orthogonalEdgeStyle;rounded=0;orthogonalLoop=1;jettySize=auto;html=1;entryX=0.5;entryY=0;entryDx=0;entryDy=0;endArrow=block;endFill=1;strokeColor=#666666;strokeWidth=4;" edge="1" parent="1" source="WwHgvZpowAIh_IYd4Kne-2" target="SLsqdyoGx3VEHhg5HpJQ-19">
          <mxGeometry relative="1" as="geometry">
            <Array as="points">
              <mxPoint x="199" y="-397" />
            </Array>
          </mxGeometry>
        </mxCell>
        <mxCell id="WwHgvZpowAIh_IYd4Kne-2" value="" style="shape=image;verticalLabelPosition=bottom;labelBackgroundColor=#ffffff;verticalAlign=top;aspect=fixed;imageAspect=0;image=data:image/svg+xml,PHN2ZyB4bWxucz0iaHR0cDovL3d3dy53My5vcmcvMjAwMC9zdmciIGlkPSJlbW9qaSIgdmlld0JveD0iMCAwIDcyIDcyIj4mI3hhOyAgPGcgaWQ9ImNvbG9yIj4mI3hhOyAgICA8cGF0aCBmaWxsPSIjOTJEM0Y1IiBkPSJNMTcsNjF2LTRjMC00Ljk5NDEsNS4wMDc4LTksMTAtOWM2LDUsMTIsNSwxOCwwYzQuOTk0MSwwLDEwLDQuMDA1OSwxMCw5djQiIHN0cm9rZT0ibm9uZSIvPiYjeGE7ICA8L2c+JiN4YTsgIDxnIGlkPSJoYWlyIj4mI3hhOyAgICA8cGF0aCBmaWxsPSIjRjFCMzFDIiBkPSJNMjYsMzljLTQsMC00LTYtNC0xM3M0LTE0LDE0LTE0czE0LDcsMTQsMTRzMCwxMy00LDEzIiBzdHJva2U9Im5vbmUiLz4mI3hhOyAgPC9nPiYjeGE7ICA8ZyBpZD0ic2tpbiI+JiN4YTsgICAgPHBhdGggZmlsbD0iI0ZDRUEyQiIgZD0iTTI0LjkzNjUsMzFjMCw5LDQuOTM2NSwxNCwxMSwxNEM0MS44NzMsNDUsNDcsNDAsNDcsMzFjMC0zLTEtNS4wMDA1LTEtNS4wMDA1Yy0zLTIuOTk5NS03LTgtNy04IGMtNCwzLTcsNi0xMyw3LjAwMDVDMjYsMjUsMjQuOTM2NSwyNS45OTk1LDI0LjkzNjUsMzF6IiBzdHJva2U9Im5vbmUiLz4mI3hhOyAgPC9nPiYjeGE7ICA8ZyBpZD0ic2tpbi1zaGFkb3ciLz4mI3hhOyAgPGcgaWQ9ImxpbmUiPiYjeGE7ICAgIDxwYXRoIGZpbGw9Im5vbmUiIHN0cm9rZT0iIzAwMDAwMCIgc3Ryb2tlLXdpZHRoPSIyIiBzdHJva2UtbGluZWNhcD0icm91bmQiIHN0cm9rZS1saW5lam9pbj0icm91bmQiIGQ9Ik0yNiwzOWMtNCwwLTQtNi00LTEzIHM0LTE0LDE0LTE0czE0LDcsMTQsMTRzMCwxMy00LDEzIi8+JiN4YTsgICAgPHBhdGggZmlsbD0ibm9uZSIgc3Ryb2tlPSIjMDAwMDAwIiBzdHJva2Utd2lkdGg9IjIiIHN0cm9rZS1saW5lY2FwPSJyb3VuZCIgc3Ryb2tlLWxpbmVqb2luPSJyb3VuZCIgZD0iTTE3LDYwdi0zIGMwLTQuOTk0MSw1LjAwNzgtOSwxMC05YzYsNSwxMiw1LDE4LDBjNC45OTQxLDAsMTAsNC4wMDU5LDEwLDl2MyIvPiYjeGE7ICAgIDxwYXRoIGZpbGw9IiMwMDAwMDAiIGQ9Ik00MS44NzMsMzBjMCwxLjEwNDUtMC44OTU1LDItMiwyYy0xLjEwNDQsMC0yLTAuODk1NS0yLTJzMC44OTU2LTIsMi0yIEM0MC45Nzc1LDI4LDQxLjg3MywyOC44OTU1LDQxLjg3MywzMCIgc3Ryb2tlPSJub25lIi8+JiN4YTsgICAgPHBhdGggZmlsbD0iIzAwMDAwMCIgZD0iTTMzLjg3MywzMGMwLDEuMTA0NS0wLjg5NTUsMi0yLDJjLTEuMTA0NCwwLTItMC44OTU1LTItMnMwLjg5NTYtMiwyLTIgQzMyLjk3NzUsMjgsMzMuODczLDI4Ljg5NTUsMzMuODczLDMwIiBzdHJva2U9Im5vbmUiLz4mI3hhOyAgICA8cGF0aCBmaWxsPSJub25lIiBzdHJva2U9IiMwMDAwMDAiIHN0cm9rZS13aWR0aD0iMiIgc3Ryb2tlLWxpbmVqb2luPSJyb3VuZCIgZD0iTTI0LjkzNjUsMzFjMCw5LDQuOTM2NSwxNCwxMSwxNCBDNDEuODczLDQ1LDQ3LDQwLDQ3LDMxYzAtMy0xLTUuMDAwNS0xLTUuMDAwNWMtMy0yLjk5OTUtNy04LTctOGMtNCwzLTcsNi0xMyw3LjAwMDVDMjYsMjUsMjQuOTM2NSwyNS45OTk1LDI0LjkzNjUsMzF6Ii8+JiN4YTsgICAgPHBhdGggZmlsbD0ibm9uZSIgc3Ryb2tlPSIjMDAwMDAwIiBzdHJva2Utd2lkdGg9IjIiIHN0cm9rZS1saW5lY2FwPSJyb3VuZCIgc3Ryb2tlLWxpbmVqb2luPSJyb3VuZCIgZD0iTTMzLDM4IGMxLjkzODUsMC45Mzg1LDQsMSw2LDAiLz4mI3hhOyAgPC9nPiYjeGE7PC9zdmc+;" parent="1" vertex="1">
          <mxGeometry x="80" y="-438.5" width="72" height="72" as="geometry" />
        </mxCell>
        <mxCell id="WwHgvZpowAIh_IYd4Kne-32" value="" style="rounded=0;whiteSpace=wrap;html=1;strokeColor=#666666;strokeWidth=4;align=left;dashed=1;fillColor=none;" parent="1" vertex="1">
          <mxGeometry x="364.5" y="-499" width="254" height="260" as="geometry" />
        </mxCell>
        <mxCell id="WwHgvZpowAIh_IYd4Kne-40" value="&lt;div align=&quot;right&quot;&gt;Kubernetes Job&lt;/div&gt;" style="text;html=1;strokeColor=none;fillColor=none;align=right;verticalAlign=middle;whiteSpace=wrap;rounded=0;fontColor=#666666;fontSize=14;" parent="1" vertex="1">
          <mxGeometry x="500" y="-489" width="109.5" height="26" as="geometry" />
        </mxCell>
        <mxCell id="SLsqdyoGx3VEHhg5HpJQ-4" value="" style="group;strokeColor=#666666;" vertex="1" connectable="0" parent="1">
          <mxGeometry x="380" y="-450.5" width="220" height="84" as="geometry" />
        </mxCell>
        <mxCell id="WwHgvZpowAIh_IYd4Kne-41" value="" style="rounded=0;whiteSpace=wrap;html=1;strokeWidth=4;strokeColor=#666666;" parent="SLsqdyoGx3VEHhg5HpJQ-4" vertex="1">
          <mxGeometry width="220" height="84" as="geometry" />
        </mxCell>
        <mxCell id="WwHgvZpowAIh_IYd4Kne-43" value="&lt;font&gt;&lt;span style=&quot;font-size: 16px&quot;&gt;Scanner Container&lt;br&gt;&lt;/span&gt;&lt;span style=&quot;font-size: 18px&quot;&gt;&lt;b&gt;Run Scan&lt;/b&gt;&lt;/span&gt;&lt;br&gt;&lt;/font&gt;" style="text;html=1;strokeColor=none;fillColor=none;align=left;verticalAlign=middle;whiteSpace=wrap;rounded=0;" parent="SLsqdyoGx3VEHhg5HpJQ-4" vertex="1">
          <mxGeometry x="67.5" y="17" width="139" height="50" as="geometry" />
        </mxCell>
        <mxCell id="WwHgvZpowAIh_IYd4Kne-44" value="" style="shape=image;verticalLabelPosition=bottom;labelBackgroundColor=#ffffff;verticalAlign=top;aspect=fixed;imageAspect=0;image=data:image/svg+xml,PHN2ZyB4bWxucz0iaHR0cDovL3d3dy53My5vcmcvMjAwMC9zdmciIGlkPSJlbW9qaSIgdmlld0JveD0iMCAwIDcyIDcyIj4mI3hhOyAgPGcgaWQ9ImNvbG9yIj4mI3hhOyAgICA8cGF0aCBmaWxsPSIjZDBjZmNlIiBkPSJNNjAuODEsNDUuMjVjLTAuMDYsMC4wMS0wLjEyLDAuMDItMC4xOCwwLjAzYy0wLjA3LDAtMC4xNCwwLjAxLTAuMjIsMC4wMmMwLjA4LTAuMDEsMC4xNi0wLjAyLDAuMjQtMC4wMyBDNjAuNzEsNDUuMjcsNjAuNzYsNDUuMjYsNjAuODEsNDUuMjV6IiBzdHJva2U9Im5vbmUiLz4mI3hhOyAgICA8cGF0aCBmaWxsPSIjZDBjZmNlIiBkPSJNNjAuNjUsNDUuMjdjLTAuMDEsMC0wLjAxLDAtMC4wMiwwLjAxYy0wLjA3LDAtMC4xNCwwLjAxLTAuMjIsMC4wMkM2MC40OSw0NS4yOSw2MC41Nyw0NS4yOCw2MC42NSw0NS4yN3oiIHN0cm9rZT0ibm9uZSIvPiYjeGE7ICAgIDxwYXRoIGZpbGw9IiNkMGNmY2UiIGQ9Ik02MC44MSw0NS4yNWMtMC4wNiwwLjAxLTAuMTIsMC4wMi0wLjE4LDAuMDNjLTAuMDcsMC0wLjE0LDAuMDEtMC4yMiwwLjAyYzAuMDgtMC4wMSwwLjE2LTAuMDIsMC4yNC0wLjAzIEM2MC43MSw0NS4yNyw2MC43Niw0NS4yNiw2MC44MSw0NS4yNXoiIHN0cm9rZT0ibm9uZSIvPiYjeGE7ICAgIDxwYXRoIGZpbGw9IiNkMGNmY2UiIGQ9Ik02MS42Niw0Ni4wN2MtMC4zLDAuMy00LjY1LDAuNTUtMTAuNjksMC43M2MtMS42MiwwLjA0LTMuMzYsMC4wOC01LjE3LDAuMTJjLTEuMTgsMC4wMi0yLjQsMC4wNC0zLjY0LDAuMDUgYy0wLjQyLDAtMC44MywwLjAxLTEuMjUsMC4wMWMtMC4xMiwwLjAxLTAuMjMsMC4wMS0wLjM1LDAuMDFDMzkuOTEsNDcsMzkuMjYsNDcsMzguNiw0Ny4wMWMtMS4wMSwwLjAxLTIuMDIsMC4wMi0zLjA0LDAuMDIgYy0zLjA0LDAuMDItNi4wOCwwLjAxLTguOTItMC4wMmMtMS4xNS0wLjAxLTIuMjctMC4wMy0zLjM0LTAuMDRjLTAuMTYtMC4wMS0wLjMxLTAuMDEtMC40Ny0wLjAxYy0wLjUxLTAuMDEtMS4wMS0wLjAyLTEuNS0wLjAzIGMtNS45OC0wLjE1LTEwLjMyLTAuNDItMTAuNzYtMC44NmMtMC43MS0wLjcyLTAuNzctMS40My0wLjYxLTEuOThjMC4xNy0wLjY1LDAuNjEtMS4wOSwwLjYxLTEuMDlsMTAuMjItNy4xNWgzMC42NUw2MS42Niw0MyBjMCwwLDAuMjksMC41OSwwLjQsMS4yOEM2Mi4xNyw0NC44OCw2Mi4xNCw0NS41OSw2MS42Niw0Ni4wN3oiIHN0cm9rZT0ibm9uZSIvPiYjeGE7ICAgIDxwb2x5Z29uIGZpbGw9IiM5YjliOWEiIHBvaW50cz0iNDAuNzk2MSwzNi41MzY2IDQ4Ljc1LDQ2LjU4MzMgNjEuMjkxNyw0NS45OCA2Mi4xMTI4LDQ0Ljk1ODMgNjEuMjU2MSw0Mi43MTc1IDUxLjQsMzUuODUgNDAuNTYsMzYiIHN0cm9rZT0ibm9uZSIvPiYjeGE7ICAgIDxwYXRoIGZpbGw9IiNkMGNmY2UiIGQ9Ik00MC45Nyw0NS45N2MtMC4yMSwwLTAuNDIsMC4wMS0wLjYzLDAuMDFoLTAuNDZjMC4yMS0wLjAxLDAuNDItMC4wMSwwLjYzLTAuMDFINDAuOTd6IiBzdHJva2U9Im5vbmUiLz4mI3hhOyAgICA8cGF0aCBmaWxsPSIjZDBjZmNlIiBkPSJNNDYuMjIsNDUuODljLTAuMTEsMC0wLjIyLDAtMC4zMiwwLjAxYy0wLjIsMC0wLjQsMC0wLjYsMC4wMWgtMC4xN2MwLjEtMC4wMSwwLjItMC4wMSwwLjMtMC4wMSBjMC4yLDAsMC40LTAuMDEsMC42LTAuMDFINDYuMjJ6IiBzdHJva2U9Im5vbmUiLz4mI3hhOyAgICA8cGF0aCBmaWxsPSIjZDBjZmNlIiBkPSJNNTEuMzYsNDUuNzZjMCwwLjAxLDAsMC4wMSwwLDAuMDFjLTAuMjMsMC0wLjQ2LDAuMDEtMC43LDAuMDJDNTAuOSw0NS43OCw1MS4xMyw0NS43Nyw1MS4zNiw0NS43NnoiIHN0cm9rZT0ibm9uZSIvPiYjeGE7ICAgIDxwYXRoIGZpbGw9IiM5YjliOWEiIGQ9Ik01MC45Nyw0Ni44Yy0xLjYzLDMuMDQtNy40Myw1LjMtMTQuMzgsNS4zOWMwLjEtMC4wOCwwLjE5LTAuMTgsMC4yOC0wLjI3YzEuMjktMS4yOSwyLjQyLTIuNjMsMy4zOC0zLjk2IGMwLjIzLTAuMzMsMC40NS0wLjY1LDAuNjYtMC45OGMxLjY3LTAuMDEsMy4zMS0wLjAzLDQuODktMC4wNkM0Ny42MSw0Ni44OCw0OS4zNSw0Ni44NCw1MC45Nyw0Ni44eiIgc3Ryb2tlPSJub25lIi8+JiN4YTsgICAgPHBhdGggZmlsbD0iI2QwY2ZjZSIgZD0iTTQwLjkxLDQ2Ljk4Yy0wLjIxLDAuMzMtMC40MywwLjY1LTAuNjYsMC45OGMtMC45NiwxLjMzLTIuMDksMi42Ny0zLjM4LDMuOTYgYy0wLjA5LDAuMDktMC4xOCwwLjE5LTAuMjgsMC4yN2MtMC4xNSwwLjAxLTAuMzEsMC4wMS0wLjQ3LDAuMDFjLTAuODcsMC0xLjczLTAuMDMtMi41Ni0wLjFjLTAuODgtMC4wNy0xLjczLTAuMTctMi41NS0wLjMxIGMtNC42My0wLjc2LTguMjQtMi41My05LjYxLTQuNzVjLTAuMDMtMC4wNC0wLjA1LTAuMDctMC4wNy0wLjExYzEuOTYsMC4wNCw0LjEsMC4wNyw2LjM0LDAuMDljMC4xMywwLDAuMjUtMC4wMSwwLjM4LDAgYzQuMDIsMC4wMyw4LjM1LDAuMDIsMTIuNTEtMC4wM0M0MC42OCw0Ni45OSw0MC43OSw0Ni45OSw0MC45MSw0Ni45OHoiIHN0cm9rZT0ibm9uZSIvPiYjeGE7ICAgIDxwYXRoIGZpbGw9IiNkMGNmY2UiIGQ9Ik00MC45Nyw0NS45N2MtMC4yMSwwLTAuNDIsMC4wMS0wLjYzLDAuMDFoLTAuNDZjMC4yMS0wLjAxLDAuNDItMC4wMSwwLjYzLTAuMDFINDAuOTd6IiBzdHJva2U9Im5vbmUiLz4mI3hhOyAgICA8cGF0aCBmaWxsPSIjZDBjZmNlIiBkPSJNNDYuMjIsNDUuODljLTAuMTEsMC0wLjIyLDAtMC4zMiwwLjAxYy0wLjIsMC0wLjQsMC0wLjYsMC4wMWgtMC4xN2MwLjEtMC4wMSwwLjItMC4wMSwwLjMtMC4wMSBjMC4yLDAsMC40LTAuMDEsMC42LTAuMDFINDYuMjJ6IiBzdHJva2U9Im5vbmUiLz4mI3hhOyAgICA8cGF0aCBmaWxsPSIjOWI5YjlhIiBkPSJNNDAuOTcsNDUuOTdjLTAuMjEsMC0wLjQyLDAuMDEtMC42MywwLjAxYzAuMDYsMCwwLjEyLDAsMC4xNy0wLjAxSDQwLjk3eiIgc3Ryb2tlPSJub25lIi8+JiN4YTsgICAgPHBhdGggZmlsbD0iIzliOWI5YSIgZD0iTTQ1LjksNDUuOWMtMC4yLDAtMC40LDAtMC42LDAuMDFjMC4wNCwwLDAuMDksMCwwLjEzLTAuMDFINDUuOXoiIHN0cm9rZT0ibm9uZSIvPiYjeGE7ICAgIDxwYXRoIGZpbGw9IiM5YjliOWEiIGQ9Ik00Ni4yMiw0NS44OWMtMC4xMSwwLTAuMjIsMC0wLjMyLDAuMDFjMC4wNSwwLDAuMDktMC4wMSwwLjEzLTAuMDFINDYuMjJ6IiBzdHJva2U9Im5vbmUiLz4mI3hhOyAgICA8cGF0aCBmaWxsPSIjOWI5YjlhIiBkPSJNNTEuOTQsNDUuNzVjLTAuMTEsMC0wLjIyLDAtMC4zMywwLjAxYzAuMDMsMCwwLjA1LDAsMC4wOC0wLjAxSDUxLjk0eiIgc3Ryb2tlPSJub25lIi8+JiN4YTsgICAgPHBhdGggZmlsbD0iIzliOWI5YSIgZD0iTTUzLjQ2LDQ1LjdjLTAuMTEsMC0wLjIyLDAtMC4zMywwLjAxYzAuMDQsMCwwLjA3LDAsMC4xLTAuMDFINTMuNDZ6IiBzdHJva2U9Im5vbmUiLz4mI3hhOyAgICA8cGF0aCBmaWxsPSIjOWI5YjlhIiBkPSJNNTUuMzksNDUuNjJjLTAuMTMsMC4wMS0wLjI2LDAuMDEtMC4zOSwwLjAyYzAuMDMsMCwwLjA2LDAsMC4wOC0wLjAxQzU1LjE5LDQ1LjYzLDU1LjI5LDQ1LjYzLDU1LjM5LDQ1LjYyIHoiIHN0cm9rZT0ibm9uZSIvPiYjeGE7ICAgIDxwYXRoIGZpbGw9IiM5YjliOWEiIGQ9Ik02MC44MSw0NS4yNWMtMC4wNiwwLjAxLTAuMTIsMC4wMi0wLjE4LDAuMDNjLTAuMDcsMC0wLjE0LDAuMDEtMC4yMiwwLjAyYzAuMDgtMC4wMSwwLjE2LTAuMDIsMC4yNC0wLjAzIEM2MC43MSw0NS4yNyw2MC43Niw0NS4yNiw2MC44MSw0NS4yNXoiIHN0cm9rZT0ibm9uZSIvPiYjeGE7ICAgIDxwYXRoIGZpbGw9IiNkMGNmY2UiIGQ9Ik0xNS42NSw0NS43aC0wLjA4Yy0wLjExLTAuMDEtMC4yMi0wLjAyLTAuMzItMC4wMmMwLjA5LDAsMC4xOCwwLjAxLDAuMjcsMC4wMSBDMTUuNTcsNDUuNjksMTUuNjEsNDUuNywxNS42NSw0NS43eiIgc3Ryb2tlPSJub25lIi8+JiN4YTsgICAgPHBhdGggZmlsbD0iI2QwY2ZjZSIgZD0iTTE2LjI1LDQ1LjczYy0wLjIxLTAuMDEtMC40MS0wLjAyLTAuNi0wLjAzYzAuMTgsMC4wMSwwLjM1LDAuMDIsMC41MywwLjAyIEMxNi4yLDQ1LjczLDE2LjIzLDQ1LjczLDE2LjI1LDQ1LjczeiIgc3Ryb2tlPSJub25lIi8+JiN4YTsgICAgPHBhdGggZmlsbD0iI2QwY2ZjZSIgZD0iTTIwLjksNDUuOWMtMC4wNy0wLjAxLTAuMTMtMC4wMS0wLjE5LTAuMDFoMC4xOEwyMC45LDQ1Ljl6IiBzdHJva2U9Im5vbmUiLz4mI3hhOyAgICA8cGF0aCBmaWxsPSIjZDBjZmNlIiBkPSJNNDAuOTcsNDUuOTdjLTAuMjEsMC0wLjQyLDAuMDEtMC42MywwLjAxaC0wLjQ2YzAuMjEtMC4wMSwwLjQyLTAuMDEsMC42My0wLjAxSDQwLjk3eiIgc3Ryb2tlPSJub25lIi8+JiN4YTsgICAgPHBhdGggZmlsbD0iI2QwY2ZjZSIgZD0iTTQ2LjIyLDQ1Ljg5Yy0wLjExLDAtMC4yMiwwLTAuMzIsMC4wMWMtMC4yLDAtMC40LDAtMC42LDAuMDFoLTAuMTdjMC4xLTAuMDEsMC4yLTAuMDEsMC4zLTAuMDEgYzAuMiwwLDAuNC0wLjAxLDAuNi0wLjAxSDQ2LjIyeiIgc3Ryb2tlPSJub25lIi8+JiN4YTsgICAgPHBhdGggZmlsbD0iI2QwY2ZjZSIgZD0iTTUxLjQxLDQ1Ljc2Yy0wLjAyLDAuMDEtMC4wNCwwLjAxLTAuMDUsMC4wMWMtMC4yMywwLTAuNDYsMC4wMS0wLjcsMC4wMmMwLjI0LTAuMDEsMC40Ny0wLjAyLDAuNy0wLjAzIEg1MS40MXoiIHN0cm9rZT0ibm9uZSIvPiYjeGE7ICAgIDxwYXRoIGZpbGw9IiNkMGNmY2UiIGQ9Ik02MC42NSw0NS4yN2MtMC4wMSwwLTAuMDEsMC0wLjAyLDAuMDFjLTAuMDcsMC0wLjE0LDAuMDEtMC4yMiwwLjAyQzYwLjQ5LDQ1LjI5LDYwLjU3LDQ1LjI4LDYwLjY1LDQ1LjI3eiIgc3Ryb2tlPSJub25lIi8+JiN4YTsgICAgPHBhdGggZmlsbD0iIzliOWI5YSIgZD0iTTUyLjA0LDQ1Ljc0Yy0wLjAzLDAtMC4wNywwLTAuMSwwLjAxYy0wLjExLDAtMC4yMiwwLTAuMzMsMC4wMWMwLjAzLDAsMC4wNSwwLDAuMDgtMC4wMSBDNTEuODEsNDUuNzUsNTEuOTMsNDUuNzUsNTIuMDQsNDUuNzR6IiBzdHJva2U9Im5vbmUiLz4mI3hhOyAgICA8cGF0aCBmaWxsPSIjOWI5YjlhIiBkPSJNNTMuNTQsNDUuNjljLTAuMDIsMC0wLjA1LDAtMC4wOCwwLjAxYy0wLjExLDAtMC4yMiwwLTAuMzMsMC4wMWMwLjA0LDAsMC4wNywwLDAuMS0wLjAxIEM1My4zNCw0NS43LDUzLjQ0LDQ1LjcsNTMuNTQsNDUuNjl6IiBzdHJva2U9Im5vbmUiLz4mI3hhOyAgICA8cGF0aCBmaWxsPSIjOWI5YjlhIiBkPSJNNTUuMzksNDUuNjJjLTAuMTMsMC4wMS0wLjI2LDAuMDEtMC4zOSwwLjAyYzAuMDMsMCwwLjA2LDAsMC4wOC0wLjAxQzU1LjE5LDQ1LjYzLDU1LjI5LDQ1LjYzLDU1LjM5LDQ1LjYyIHoiIHN0cm9rZT0ibm9uZSIvPiYjeGE7ICAgIDxwYXRoIGZpbGw9IiM5YjliOWEiIGQ9Ik02MC44MSw0NS4yNWMtMC4wNiwwLjAxLTAuMTIsMC4wMi0wLjE4LDAuMDNjLTAuMDcsMC0wLjE0LDAuMDEtMC4yMiwwLjAyYzAuMDgtMC4wMSwwLjE2LTAuMDIsMC4yNC0wLjAzIEM2MC43MSw0NS4yNyw2MC43Niw0NS4yNiw2MC44MSw0NS4yNXoiIHN0cm9rZT0ibm9uZSIvPiYjeGE7ICAgIDxwYXRoIGZpbGw9IiNkMGNmY2UiIGQ9Ik0xMS4wMyw0NS4yNGMtMC4wMiwwLTAuMDQtMC4wMS0wLjA2LTAuMDFjLTAuMDMtMC4wMS0wLjA2LTAuMDItMC4wOS0wLjAzYzAuMDQsMC4wMSwwLjA4LDAuMDIsMC4xMywwLjAzIEMxMS4wMiw0NS4yMywxMS4wMiw0NS4yNCwxMS4wMyw0NS4yNHoiIHN0cm9rZT0ibm9uZSIvPiYjeGE7ICAgIDxwYXRoIGZpbGw9IiNkMGNmY2UiIGQ9Ik0xNS42NSw0NS43aC0wLjA4Yy0wLjAyLTAuMDEtMC4wMy0wLjAxLTAuMDUtMC4wMUMxNS41Nyw0NS42OSwxNS42MSw0NS43LDE1LjY1LDQ1Ljd6IiBzdHJva2U9Im5vbmUiLz4mI3hhOyAgICA8cGF0aCBmaWxsPSIjZDBjZmNlIiBkPSJNMTEuMDMsNDUuMjRjLTAuMDIsMC0wLjA0LTAuMDEtMC4wNi0wLjAxYy0wLjAzLTAuMDEtMC4wNi0wLjAyLTAuMDktMC4wM2MwLjA0LDAuMDEsMC4wOCwwLjAyLDAuMTMsMC4wMyBDMTEuMDIsNDUuMjMsMTEuMDIsNDUuMjQsMTEuMDMsNDUuMjR6IiBzdHJva2U9Im5vbmUiLz4mI3hhOyAgICA8cGF0aCBmaWxsPSIjZDBjZmNlIiBkPSJNMTUuNjUsNDUuN2gtMC4wOGMtMC4wMi0wLjAxLTAuMDMtMC4wMS0wLjA1LTAuMDFDMTUuNTcsNDUuNjksMTUuNjEsNDUuNywxNS42NSw0NS43eiIgc3Ryb2tlPSJub25lIi8+JiN4YTsgICAgPHBhdGggZmlsbD0iIzYxYjJlNCIgZD0iTTUxLjQsMzUuNzV2MC4xSDQxLjAzYzEuMDMtNC45LTAuMzUtMTAuMjEtNC4xNi0xNC4wMWMtMC4wOS0wLjEtMC4xOS0wLjE5LTAuMjktMC4yOCBDNDQuNDUsMjEuNzksNTAuODMsMjcuOTYsNTEuNCwzNS43NXoiIHN0cm9rZT0ibm9uZSIvPiYjeGE7ICAgIDxwYXRoIGZpbGw9IiM5MmQzZjUiIGQ9Ik00MS4wMywzNS44NWgtMjAuMnYtMC4wOWMwLjE5LTIuNjcsMS4wNy01LjE2LDIuNDYtNy4yOGMyLjMtMy41LDUuOTgtNiwxMC4yNy02LjcyIGMwLjgzLTAuMTQsMS42OS0wLjIxLDIuNTYtMC4yMWMwLjE1LDAsMC4zMSwwLDAuNDYsMC4wMWMwLjEsMC4wOSwwLjIsMC4xOCwwLjI5LDAuMjhDNDAuNjgsMjUuNjQsNDIuMDYsMzAuOTUsNDEuMDMsMzUuODV6IiBzdHJva2U9Im5vbmUiLz4mI3hhOyAgICA8cGF0aCBmaWxsPSIjOTJkM2Y1IiBzdHJva2U9Im5vbmUiIHN0cm9rZS13aWR0aD0iMiIgc3Ryb2tlLW1pdGVybGltaXQ9IjEwIiBkPSJNNTIuMDQsNDEuNDQwMmMwLDAuMzEtMC4wNywwLjYxLTAuMiwwLjg4IGMtMC4wMiwwLjA1LTAuMDQsMC4wOS0wLjA3LDAuMTRjLTAuMzUsMC42MS0xLjAyLDEuMDMtMS43NywxLjAzYy0wLjE4LDAtMC4zNS0wLjAyLTAuNTEtMC4wOGMtMC41My0wLjEzLTAuOTktMC40OC0xLjI1LTAuOTUgYy0wLjE5LTAuMy0wLjI5LTAuNjUtMC4yOS0xLjAyYzAtMC41NSwwLjIyLTEuMDYsMC42LTEuNDJjMC4yNC0wLjI3LDAuNTctMC40NiwwLjk0LTAuNTVjMC4xNi0wLjA1LDAuMzMtMC4wNywwLjUxLTAuMDcgQzUxLjEyLDM5LjQwMDIsNTIuMDQsNDAuMzIwMiw1Mi4wNCw0MS40NDAyeiIvPiYjeGE7ICAgIDxwYXRoIGZpbGw9IiM5MmQzZjUiIHN0cm9rZT0ibm9uZSIgc3Ryb2tlLXdpZHRoPSIyIiBzdHJva2UtbWl0ZXJsaW1pdD0iMTAiIGQ9Ik0zOC4xOTUsNDEuNDQwMmMwLDAuMzEtMC4wNywwLjYxLTAuMiwwLjg4IGMtMC4wMiwwLjA1LTAuMDQsMC4wOS0wLjA3LDAuMTRjLTAuMzUsMC42MS0xLjAyLDEuMDMtMS43NywxLjAzYy0wLjE4LDAtMC4zNS0wLjAyLTAuNTEtMC4wOGMtMC41My0wLjEzLTAuOTktMC40OC0xLjI1LTAuOTUgYy0wLjE5LTAuMy0wLjI5LTAuNjUtMC4yOS0xLjAyYzAtMC41NSwwLjIyLTEuMDYsMC42LTEuNDJjMC4yNC0wLjI3LDAuNTctMC40NiwwLjk0LTAuNTVjMC4xNi0wLjA1LDAuMzMtMC4wNywwLjUxLTAuMDcgQzM3LjI3NSwzOS40MDAyLDM4LjE5NSw0MC4zMjAyLDM4LjE5NSw0MS40NDAyeiIvPiYjeGE7ICAgIDxwYXRoIGZpbGw9IiM5MmQzZjUiIHN0cm9rZT0ibm9uZSIgc3Ryb2tlLXdpZHRoPSIyIiBzdHJva2UtbWl0ZXJsaW1pdD0iMTAiIGQ9Ik0yNC40NDUsNDEuNDQwMmMwLDAuMzEtMC4wNywwLjYxLTAuMiwwLjg4IGMtMC4wMiwwLjA1LTAuMDQsMC4wOS0wLjA3LDAuMTRjLTAuMzUsMC42MS0xLjAyLDEuMDMtMS43NywxLjAzYy0wLjE4LDAtMC4zNS0wLjAyLTAuNTEtMC4wOGMtMC41My0wLjEzLTAuOTktMC40OC0xLjI1LTAuOTUgYy0wLjE5LTAuMy0wLjI5LTAuNjUtMC4yOS0xLjAyYzAtMC41NSwwLjIyLTEuMDYsMC42LTEuNDJjMC4yNC0wLjI3LDAuNTctMC40NiwwLjk0LTAuNTVjMC4xNi0wLjA1LDAuMzMtMC4wNywwLjUxLTAuMDcgQzIzLjUyNSwzOS40MDAyLDI0LjQ0NSw0MC4zMjAyLDI0LjQ0NSw0MS40NDAyeiIvPiYjeGE7ICA8L2c+JiN4YTsgIDxnIGlkPSJoYWlyIi8+JiN4YTsgIDxnIGlkPSJza2luIi8+JiN4YTsgIDxnIGlkPSJza2luLXNoYWRvdyIvPiYjeGE7ICA8ZyBpZD0ibGluZSI+JiN4YTsgICAgPHBhdGggZmlsbD0ibm9uZSIgc3Ryb2tlPSIjMDAwMDAwIiBzdHJva2Utd2lkdGg9IjIiIHN0cm9rZS1taXRlcmxpbWl0PSIxMCIgZD0iTTUyLjA0LDQxLjQ0MDJjMCwwLjMxLTAuMDcsMC42MS0wLjIsMC44OCBjLTAuMDIsMC4wNS0wLjA0LDAuMDktMC4wNywwLjE0Yy0wLjM1LDAuNjEtMS4wMiwxLjAzLTEuNzcsMS4wM2MtMC4xOCwwLTAuMzUtMC4wMi0wLjUxLTAuMDhjLTAuNTMtMC4xMy0wLjk5LTAuNDgtMS4yNS0wLjk1IGMtMC4xOS0wLjMtMC4yOS0wLjY1LTAuMjktMS4wMmMwLTAuNTUsMC4yMi0xLjA2LDAuNi0xLjQyYzAuMjQtMC4yNywwLjU3LTAuNDYsMC45NC0wLjU1YzAuMTYtMC4wNSwwLjMzLTAuMDcsMC41MS0wLjA3IEM1MS4xMiwzOS40MDAyLDUyLjA0LDQwLjMyMDIsNTIuMDQsNDEuNDQwMnoiLz4mI3hhOyAgICA8cGF0aCBmaWxsPSJub25lIiBzdHJva2U9IiMwMDAwMDAiIHN0cm9rZS13aWR0aD0iMiIgc3Ryb2tlLW1pdGVybGltaXQ9IjEwIiBkPSJNMzguMTk1LDQxLjQ0MDJjMCwwLjMxLTAuMDcsMC42MS0wLjIsMC44OCBjLTAuMDIsMC4wNS0wLjA0LDAuMDktMC4wNywwLjE0Yy0wLjM1LDAuNjEtMS4wMiwxLjAzLTEuNzcsMS4wM2MtMC4xOCwwLTAuMzUtMC4wMi0wLjUxLTAuMDhjLTAuNTMtMC4xMy0wLjk5LTAuNDgtMS4yNS0wLjk1IGMtMC4xOS0wLjMtMC4yOS0wLjY1LTAuMjktMS4wMmMwLTAuNTUsMC4yMi0xLjA2LDAuNi0xLjQyYzAuMjQtMC4yNywwLjU3LTAuNDYsMC45NC0wLjU1YzAuMTYtMC4wNSwwLjMzLTAuMDcsMC41MS0wLjA3IEMzNy4yNzUsMzkuNDAwMiwzOC4xOTUsNDAuMzIwMiwzOC4xOTUsNDEuNDQwMnoiLz4mI3hhOyAgICA8cGF0aCBmaWxsPSJub25lIiBzdHJva2U9IiMwMDAwMDAiIHN0cm9rZS13aWR0aD0iMiIgc3Ryb2tlLW1pdGVybGltaXQ9IjEwIiBkPSJNMjQuNDQ1LDQxLjQ0MDJjMCwwLjMxLTAuMDcsMC42MS0wLjIsMC44OCBjLTAuMDIsMC4wNS0wLjA0LDAuMDktMC4wNywwLjE0Yy0wLjM1LDAuNjEtMS4wMiwxLjAzLTEuNzcsMS4wM2MtMC4xOCwwLTAuMzUtMC4wMi0wLjUxLTAuMDhjLTAuNTMtMC4xMy0wLjk5LTAuNDgtMS4yNS0wLjk1IGMtMC4xOS0wLjMtMC4yOS0wLjY1LTAuMjktMS4wMmMwLTAuNTUsMC4yMi0xLjA2LDAuNi0xLjQyYzAuMjQtMC4yNywwLjU3LTAuNDYsMC45NC0wLjU1YzAuMTYtMC4wNSwwLjMzLTAuMDcsMC41MS0wLjA3IEMyMy41MjUsMzkuNDAwMiwyNC40NDUsNDAuMzIwMiwyNC40NDUsNDEuNDQwMnoiLz4mI3hhOyAgICA8cGF0aCBmaWxsPSJub25lIiBzdHJva2U9IiMwMDAwMDAiIHN0cm9rZS13aWR0aD0iMiIgc3Ryb2tlLWxpbmVjYXA9InJvdW5kIiBzdHJva2UtbGluZWpvaW49InJvdW5kIiBzdHJva2UtbWl0ZXJsaW1pdD0iMTAiIGQ9Ik02MS42Niw0Ni4wN2MtMC4zLDAuMy00LjY1LDAuNTUtMTAuNjksMC43M2MtMS42MiwwLjA0LTMuMzYsMC4wOC01LjE3LDAuMTJjLTEuMTgsMC4wMi0yLjQsMC4wNC0zLjY0LDAuMDUgYy0wLjQyLDAtMC44MywwLjAxLTEuMjUsMC4wMWMtMC4xMiwwLjAxLTAuMjMsMC4wMS0wLjM1LDAuMDFDMzkuOTEsNDcsMzkuMjYsNDcsMzguNiw0Ny4wMWMtMS4wMSwwLjAxLTIuMDIsMC4wMi0zLjA0LDAuMDIgYy0zLjA0LDAuMDItNi4wOCwwLjAxLTguOTItMC4wMmMtMS4xNS0wLjAxLTIuMjctMC4wMy0zLjM0LTAuMDRjLTAuMTYtMC4wMS0wLjMxLTAuMDEtMC40Ny0wLjAxYy0wLjUxLTAuMDEtMS4wMS0wLjAyLTEuNS0wLjAzIGMtNS45OC0wLjE1LTEwLjMyLTAuNDItMTAuNzYtMC44NmMtMC43MS0wLjcyLTAuNzctMS40My0wLjYxLTEuOThjMC4xNy0wLjY1LDAuNjEtMS4wOSwwLjYxLTEuMDlsMTAuMjItNy4xNWgzMC42NUw2MS42Niw0MyBjMCwwLDAuMjksMC41OSwwLjQsMS4yOEM2Mi4xNyw0NC44OCw2Mi4xNCw0NS41OSw2MS42Niw0Ni4wN3oiLz4mI3hhOyAgICA8cGF0aCBmaWxsPSJub25lIiBzdHJva2U9IiMwMDAwMDAiIHN0cm9rZS13aWR0aD0iMiIgc3Ryb2tlLWxpbmVjYXA9InJvdW5kIiBzdHJva2UtbGluZWpvaW49InJvdW5kIiBzdHJva2UtbWl0ZXJsaW1pdD0iMTAiIGQ9Ik00Mi4xNiw0Ni45N2MtMC40MiwwLjAxLTAuODQsMC4wMS0xLjI2LDAuMDJjMC4wMSwwLDAuMDEtMC4wMSwwLjAxLTAuMDFDNDEuMzMsNDYuOTgsNDEuNzQsNDYuOTcsNDIuMTYsNDYuOTd6Ii8+JiN4YTsgICAgPHBhdGggZmlsbD0ibm9uZSIgc3Ryb2tlPSIjMDAwMDAwIiBzdHJva2Utd2lkdGg9IjIiIHN0cm9rZS1saW5lY2FwPSJyb3VuZCIgc3Ryb2tlLWxpbmVqb2luPSJyb3VuZCIgc3Ryb2tlLW1pdGVybGltaXQ9IjEwIiBkPSJNNTAuOTcsNDYuOGMtMS42MywzLjA0LTcuNDMsNS4zLTE0LjM4LDUuMzljLTAuMTUsMC4wMS0wLjMxLDAuMDEtMC40NywwLjAxYy0wLjg3LDAtMS43My0wLjAzLTIuNTYtMC4xIGMtMC44OC0wLjA3LTEuNzMtMC4xNy0yLjU1LTAuMzFjLTQuNjMtMC43Ni04LjI0LTIuNTMtOS42MS00Ljc1Yy0wLjAzLTAuMDQtMC4wNS0wLjA3LTAuMDctMC4xMWMwLjQ5LDAuMDEsMC45OSwwLjAyLDEuNSwwLjAzIGMwLjE2LDAsMC4zMSwwLDAuNDcsMC4wMWMxLjA3LDAuMDEsMi4xOSwwLjAzLDMuMzQsMC4wNGMyLjg0LDAuMDMsNS44OCwwLjA0LDguOTIsMC4wMmMxLjAyLDAsMi4wMy0wLjAxLDMuMDQtMC4wMiBjMC42Ni0wLjAxLDEuMzEtMC4wMSwxLjk2LTAuMDJoMC4zNGMwLjQyLTAuMDEsMC44NC0wLjAxLDEuMjYtMC4wMmMxLjI0LTAuMDEsMi40Ni0wLjAzLDMuNjQtMC4wNSBDNDcuNjEsNDYuODgsNDkuMzUsNDYuODQsNTAuOTcsNDYuOHoiLz4mI3hhOyAgICA8cGF0aCBmaWxsPSJub25lIiBzdHJva2U9IiMwMDAwMDAiIHN0cm9rZS13aWR0aD0iMiIgc3Ryb2tlLWxpbmVjYXA9InJvdW5kIiBzdHJva2UtbGluZWpvaW49InJvdW5kIiBzdHJva2UtbWl0ZXJsaW1pdD0iMTAiIGQ9Ik00MC45MSw0Ni45OGMwLDAsMCwwLjAxLTAuMDEsMC4wMWgtMC4zNEM0MC42OCw0Ni45OSw0MC43OSw0Ni45OSw0MC45MSw0Ni45OHoiLz4mI3hhOyAgICA8cGF0aCBmaWxsPSJub25lIiBzdHJva2U9IiMwMDAwMDAiIHN0cm9rZS13aWR0aD0iMiIgc3Ryb2tlLWxpbmVjYXA9InJvdW5kIiBzdHJva2UtbGluZWpvaW49InJvdW5kIiBzdHJva2UtbWl0ZXJsaW1pdD0iMTAiIGQ9Ik00Mi4xNiw0Ni45N2MtMC40MiwwLjAxLTAuODQsMC4wMS0xLjI2LDAuMDJoLTAuMzRjMC4xMiwwLDAuMjMsMCwwLjM1LTAuMDFDNDEuMzMsNDYuOTgsNDEuNzQsNDYuOTcsNDIuMTYsNDYuOTd6Ii8+JiN4YTsgICAgPHBhdGggZmlsbD0ibm9uZSIgc3Ryb2tlPSIjMDAwMDAwIiBzdHJva2Utd2lkdGg9IjIiIHN0cm9rZS1saW5lY2FwPSJyb3VuZCIgc3Ryb2tlLWxpbmVqb2luPSJyb3VuZCIgc3Ryb2tlLW1pdGVybGltaXQ9IjEwIiBkPSJNNTEuNCwzNS43NXYwLjFIMjAuODN2LTAuMDljMC4xOS0yLjY3LDEuMDctNS4xNiwyLjQ2LTcuMjhjMi4zLTMuNSw1Ljk4LTYsMTAuMjctNi43MmMwLjgzLTAuMTQsMS42OS0wLjIxLDIuNTYtMC4yMSBjMC4xNSwwLDAuMzEsMCwwLjQ2LDAuMDFDNDQuNDUsMjEuNzksNTAuODMsMjcuOTYsNTEuNCwzNS43NXoiLz4mI3hhOyAgPC9nPiYjeGE7PC9zdmc+;" parent="SLsqdyoGx3VEHhg5HpJQ-4" vertex="1">
          <mxGeometry x="9.5" y="14" width="55" height="55" as="geometry" />
        </mxCell>
        <mxCell id="SLsqdyoGx3VEHhg5HpJQ-5" value="" style="group;strokeColor=#666666;" vertex="1" connectable="0" parent="1">
          <mxGeometry x="381.5" y="-344.5" width="220" height="84" as="geometry" />
        </mxCell>
        <mxCell id="WwHgvZpowAIh_IYd4Kne-46" value="" style="rounded=0;whiteSpace=wrap;html=1;strokeWidth=4;strokeColor=#666666;" parent="SLsqdyoGx3VEHhg5HpJQ-5" vertex="1">
          <mxGeometry width="220" height="84" as="geometry" />
        </mxCell>
        <mxCell id="WwHgvZpowAIh_IYd4Kne-47" value="" style="shape=image;verticalLabelPosition=bottom;labelBackgroundColor=#ffffff;verticalAlign=top;aspect=fixed;imageAspect=0;image=data:image/svg+xml,PHN2ZyB4bWxucz0iaHR0cDovL3d3dy53My5vcmcvMjAwMC9zdmciIHhtbG5zOnhsaW5rPSJodHRwOi8vd3d3LnczLm9yZy8xOTk5L3hsaW5rIiB3aWR0aD0iMjU2cHgiIGhlaWdodD0iMjU2cHgiIHZpZXdCb3g9IjAgMCAyNTYgMjU2IiB2ZXJzaW9uPSIxLjEiPiYjeGE7ICAgIDwhLS0gR2VuZXJhdG9yOiBTa2V0Y2ggNTcuMSAoODMwODgpIC0gaHR0cHM6Ly9za2V0Y2guY29tIC0tPiYjeGE7ICAgIDx0aXRsZT5GYXZpY29uQDF4PC90aXRsZT4mI3hhOyAgICA8ZGVzYz5DcmVhdGVkIHdpdGggU2tldGNoLjwvZGVzYz4mI3hhOyAgICA8ZyBpZD0iRmF2aWNvbiIgc3Ryb2tlPSJub25lIiBzdHJva2Utd2lkdGg9IjEiIGZpbGw9Im5vbmUiIGZpbGwtcnVsZT0iZXZlbm9kZCI+JiN4YTsgICAgICAgIDxwYXRoIGQ9Ik00MCw4IEwyMTcsOCBDMjM0LjY3MzExMiw4IDI0OSwyMi4zMjY4ODggMjQ5LDQwIEwyNDksMjE3IEMyNDksMjM0LjY3MzExMiAyMzQuNjczMTEyLDI0OSAyMTcsMjQ5IEw0MCwyNDkgQzIyLjMyNjg4OCwyNDkgOCwyMzQuNjczMTEyIDgsMjE3IEw4LDQwIEM4LDIyLjMyNjg4OCAyMi4zMjY4ODgsOCA0MCw4IFoiIGlkPSJSZWN0YW5nbGUiIGZpbGw9IiMwMDlFREEiLz4mI3hhOyAgICAgICAgPHBhdGggZD0iTTE3MC4xMzcyNTUsMTAyLjkzNzI1NSBMMTcwLjEzNzI1NSw4Ni4zMTk2MDc4IEMxNzAuMTM3MjU1LDYyLjgzMzMzMzMgMTUwLjYzOTIxNiw0NCAxMjcuMTUyOTQxLDQ0IEMxMDMuNjY2NjY3LDQ0IDg0LjE2ODYyNzUsNjMuMDU0OTAyIDg0LjE2ODYyNzUsODYuMzE5NjA3OCBMODQuMTY4NjI3NSwxMDYuMjYwNzg0IEM3Mi44Njg2Mjc1LDExNy41NjA3ODQgNjYsMTMzLjI5MjE1NyA2NiwxNTAuNTc0NTEgQzY2LDE4NS4zNjA3ODQgOTQuMTM5MjE1NywyMTMuNSAxMjguOTI1NDksMjEzLjUgQzE2My43MTE3NjUsMjEzLjUgMTkxLjg1MDk4LDE4NS4zNjA3ODQgMTkxLjg1MDk4LDE1MC41NzQ1MSBDMTkyLjA3MjU0OSwxMzEuNTE5NjA4IDE4My40MzEzNzMsMTE0LjQ1ODgyNCAxNzAuMTM3MjU1LDEwMi45MzcyNTUgWiBNMTQwLjg5MDE5NiwxNzUuMzkwMTk2IEwxMTUuNDA5ODA0LDE3NS4zOTAxOTYgTDEyMi4yNzg0MzEsMTUyLjEyNTQ5IEMxMTcuMTgyMzUzLDE0OS45MDk4MDQgMTEzLjYzNzI1NSwxNDQuODEzNzI1IDExMy42MzcyNTUsMTM4LjgzMTM3MyBDMTEzLjYzNzI1NSwxMzAuODU0OTAyIDEyMC4yODQzMTQsMTI0LjIwNzg0MyAxMjguMjYwNzg0LDEyNC4yMDc4NDMgQzEzNi4yMzcyNTUsMTI0LjIwNzg0MyAxNDIuODg0MzE0LDEzMC44NTQ5MDIgMTQyLjg4NDMxNCwxMzguODMxMzczIEMxNDIuODg0MzE0LDE0NC44MTM3MjUgMTM5LjMzOTIxNiwxNDkuOTA5ODA0IDEzNC4yNDMxMzcsMTUyLjEyNTQ5IEwxNDAuODkwMTk2LDE3NS4zOTAxOTYgWiBNMTU1LjUxMzcyNSw5Ni4yOTAxOTYxIEMxNDkuOTc0NTEsOTEuNDE1Njg2MyAxNDAuODkwMTk2LDg3LjY0OTAxOTYgMTI5LjE0NzA1OSw4Ny42NDkwMTk2IEMxMTcuNDAzOTIyLDg3LjY0OTAxOTYgMTA2LjU0NzA1OSw4OS44NjQ3MDU5IDk3LjI0MTE3NjUsOTUuNDAzOTIxNiBMOTcuMjQxMTc2NSw5My4xODgyMzUzIEM5Ny4yNDExNzY1LDcxLjAzMTM3MjUgMTA2LjMyNTQ5LDU4LjYyMzUyOTQgMTI4LjI2MDc4NCw1OC42MjM1Mjk0IEMxNTAuMTk2MDc4LDU4LjYyMzUyOTQgMTU1LjczNTI5NCw3Mi44MDM5MjE2IDE1NS43MzUyOTQsOTUuMTgyMzUyOSBMMTU1LjczNTI5NCw5Ni4yOTAxOTYxIEwxNTUuNTEzNzI1LDk2LjI5MDE5NjEgWiIgaWQ9IlNoYXBlIiBmaWxsPSIjRkZGRkZGIiBmaWxsLXJ1bGU9Im5vbnplcm8iLz4mI3hhOyAgICA8L2c+JiN4YTs8L3N2Zz4=;align=left;" parent="SLsqdyoGx3VEHhg5HpJQ-5" vertex="1">
          <mxGeometry x="12.5" y="18" width="49" height="49" as="geometry" />
        </mxCell>
        <mxCell id="WwHgvZpowAIh_IYd4Kne-48" value="&lt;font&gt;&lt;span style=&quot;font-size: 16px&quot;&gt;Lurcher&lt;br&gt;&lt;/span&gt;&lt;span style=&quot;font-size: 18px&quot;&gt;&lt;b&gt;Extract Results&lt;/b&gt;&lt;/span&gt;&lt;br&gt;&lt;/font&gt;" style="text;html=1;strokeColor=none;fillColor=none;align=left;verticalAlign=middle;whiteSpace=wrap;rounded=0;" parent="SLsqdyoGx3VEHhg5HpJQ-5" vertex="1">
          <mxGeometry x="67" y="17" width="140" height="50" as="geometry" />
        </mxCell>
        <mxCell id="SLsqdyoGx3VEHhg5HpJQ-33" style="edgeStyle=orthogonalEdgeStyle;rounded=0;orthogonalLoop=1;jettySize=auto;html=1;endArrow=block;endFill=1;strokeColor=#666666;strokeWidth=4;entryX=0.5;entryY=1;entryDx=0;entryDy=0;exitX=0.5;exitY=0;exitDx=0;exitDy=0;" edge="1" parent="1" source="WwHgvZpowAIh_IYd4Kne-27" target="WwHgvZpowAIh_IYd4Kne-32">
          <mxGeometry relative="1" as="geometry">
            <Array as="points">
              <mxPoint x="700" y="-190" />
              <mxPoint x="492" y="-190" />
            </Array>
          </mxGeometry>
        </mxCell>
        <mxCell id="SLsqdyoGx3VEHhg5HpJQ-43" value="" style="rounded=0;whiteSpace=wrap;html=1;strokeColor=#666666;strokeWidth=4;align=left;dashed=1;fillColor=none;" vertex="1" parent="1">
          <mxGeometry x="724.5" y="-469" width="254" height="159" as="geometry" />
        </mxCell>
        <mxCell id="SLsqdyoGx3VEHhg5HpJQ-44" value="&lt;div align=&quot;right&quot;&gt;Kubernetes Job&lt;/div&gt;" style="text;html=1;strokeColor=none;fillColor=none;align=right;verticalAlign=middle;whiteSpace=wrap;rounded=0;fontColor=#666666;fontSize=14;" vertex="1" parent="1">
          <mxGeometry x="860" y="-459" width="109.5" height="26" as="geometry" />
        </mxCell>
        <mxCell id="SLsqdyoGx3VEHhg5HpJQ-45" value="" style="group;strokeColor=#666666;" vertex="1" connectable="0" parent="1">
          <mxGeometry x="740" y="-420.5" width="220" height="84" as="geometry" />
        </mxCell>
        <mxCell id="SLsqdyoGx3VEHhg5HpJQ-46" value="" style="rounded=0;whiteSpace=wrap;html=1;strokeWidth=4;strokeColor=#666666;" vertex="1" parent="SLsqdyoGx3VEHhg5HpJQ-45">
          <mxGeometry width="220" height="84" as="geometry" />
        </mxCell>
        <mxCell id="SLsqdyoGx3VEHhg5HpJQ-47" value="&lt;font&gt;&lt;span style=&quot;font-size: 16px&quot;&gt;Parser Container&lt;br&gt;&lt;/span&gt;&lt;span style=&quot;font-size: 18px&quot;&gt;&lt;b&gt;Parse Results&lt;/b&gt;&lt;/span&gt;&lt;br&gt;&lt;/font&gt;" style="text;html=1;strokeColor=none;fillColor=none;align=left;verticalAlign=middle;whiteSpace=wrap;rounded=0;" vertex="1" parent="SLsqdyoGx3VEHhg5HpJQ-45">
          <mxGeometry x="65.5" y="17" width="139" height="50" as="geometry" />
        </mxCell>
        <mxCell id="SLsqdyoGx3VEHhg5HpJQ-54" value="" style="rounded=0;whiteSpace=wrap;html=1;strokeColor=#666666;strokeWidth=4;align=left;dashed=1;fillColor=none;" vertex="1" parent="1">
          <mxGeometry x="1034.5" y="-469" width="254" height="159" as="geometry" />
        </mxCell>
        <mxCell id="SLsqdyoGx3VEHhg5HpJQ-55" value="&lt;div align=&quot;right&quot;&gt;Kubernetes Job&lt;/div&gt;" style="text;html=1;strokeColor=none;fillColor=none;align=right;verticalAlign=middle;whiteSpace=wrap;rounded=0;fontColor=#666666;fontSize=14;" vertex="1" parent="1">
          <mxGeometry x="1170" y="-459" width="109.5" height="26" as="geometry" />
        </mxCell>
        <mxCell id="SLsqdyoGx3VEHhg5HpJQ-56" value="" style="group;strokeColor=#666666;" vertex="1" connectable="0" parent="1">
          <mxGeometry x="1050" y="-420.5" width="220" height="84" as="geometry" />
        </mxCell>
        <mxCell id="SLsqdyoGx3VEHhg5HpJQ-57" value="" style="rounded=0;whiteSpace=wrap;html=1;strokeWidth=4;strokeColor=#666666;" vertex="1" parent="SLsqdyoGx3VEHhg5HpJQ-56">
          <mxGeometry width="220" height="84" as="geometry" />
        </mxCell>
        <mxCell id="SLsqdyoGx3VEHhg5HpJQ-58" value="&lt;font&gt;&lt;span style=&quot;font-size: 16px&quot;&gt;PersistenceProvider&lt;br&gt;&lt;/span&gt;&lt;span style=&quot;font-size: 18px&quot;&gt;&lt;b&gt;Persist Results&lt;/b&gt;&lt;/span&gt;&lt;br&gt;&lt;/font&gt;" style="text;html=1;strokeColor=none;fillColor=none;align=left;verticalAlign=middle;whiteSpace=wrap;rounded=0;" vertex="1" parent="SLsqdyoGx3VEHhg5HpJQ-56">
          <mxGeometry x="62.5" y="17" width="139" height="50" as="geometry" />
        </mxCell>
        <mxCell id="SLsqdyoGx3VEHhg5HpJQ-66" style="edgeStyle=orthogonalEdgeStyle;rounded=0;orthogonalLoop=1;jettySize=auto;html=1;entryX=0.5;entryY=1;entryDx=0;entryDy=0;endArrow=block;endFill=1;strokeColor=#666666;strokeWidth=4;" edge="1" parent="1" source="WwHgvZpowAIh_IYd4Kne-27" target="SLsqdyoGx3VEHhg5HpJQ-43">
          <mxGeometry relative="1" as="geometry">
            <Array as="points">
              <mxPoint x="700" y="-190" />
              <mxPoint x="852" y="-190" />
            </Array>
          </mxGeometry>
        </mxCell>
        <mxCell id="SLsqdyoGx3VEHhg5HpJQ-67" style="edgeStyle=orthogonalEdgeStyle;rounded=0;orthogonalLoop=1;jettySize=auto;html=1;entryX=0.5;entryY=1;entryDx=0;entryDy=0;endArrow=block;endFill=1;strokeColor=#666666;strokeWidth=4;" edge="1" parent="1" source="WwHgvZpowAIh_IYd4Kne-27" target="SLsqdyoGx3VEHhg5HpJQ-54">
          <mxGeometry relative="1" as="geometry">
            <Array as="points">
              <mxPoint x="700" y="-190" />
              <mxPoint x="1162" y="-190" />
            </Array>
          </mxGeometry>
        </mxCell>
        <mxCell id="SLsqdyoGx3VEHhg5HpJQ-80" value="" style="ellipse;whiteSpace=wrap;html=1;strokeColor=none;fontSize=14;fontColor=#666666;fillColor=#009EDA;" vertex="1" parent="1">
          <mxGeometry x="476.5" y="-201" width="28.5" height="30" as="geometry" />
        </mxCell>
        <mxCell id="SLsqdyoGx3VEHhg5HpJQ-81" value="&lt;font style=&quot;font-size: 21px&quot; color=&quot;#FFFFFF&quot;&gt;&lt;b style=&quot;font-size: 21px&quot;&gt;2&lt;/b&gt;&lt;/font&gt;" style="text;html=1;strokeColor=none;fillColor=none;align=center;verticalAlign=middle;rounded=0;fontSize=21;fontColor=#666666;whiteSpace=wrap;" vertex="1" parent="1">
          <mxGeometry x="481.5" y="-194" width="18.5" height="18" as="geometry" />
        </mxCell>
        <mxCell id="SLsqdyoGx3VEHhg5HpJQ-82" value="" style="ellipse;whiteSpace=wrap;html=1;strokeColor=none;fontSize=14;fontColor=#666666;fillColor=#009EDA;" vertex="1" parent="1">
          <mxGeometry x="836.5" y="-271" width="28.5" height="30" as="geometry" />
        </mxCell>
        <mxCell id="SLsqdyoGx3VEHhg5HpJQ-83" value="&lt;font style=&quot;font-size: 21px&quot; color=&quot;#FFFFFF&quot;&gt;&lt;b style=&quot;font-size: 21px&quot;&gt;3&lt;/b&gt;&lt;/font&gt;" style="text;html=1;strokeColor=none;fillColor=none;align=center;verticalAlign=middle;rounded=0;fontSize=21;fontColor=#666666;whiteSpace=wrap;" vertex="1" parent="1">
          <mxGeometry x="841.5" y="-264" width="18.5" height="18" as="geometry" />
        </mxCell>
        <mxCell id="SLsqdyoGx3VEHhg5HpJQ-84" value="" style="ellipse;whiteSpace=wrap;html=1;strokeColor=none;fontSize=14;fontColor=#666666;fillColor=#009EDA;" vertex="1" parent="1">
          <mxGeometry x="1147.25" y="-269" width="28.5" height="30" as="geometry" />
        </mxCell>
        <mxCell id="SLsqdyoGx3VEHhg5HpJQ-85" value="&lt;font style=&quot;font-size: 21px&quot; color=&quot;#FFFFFF&quot;&gt;&lt;b style=&quot;font-size: 21px&quot;&gt;4&lt;/b&gt;&lt;/font&gt;" style="text;html=1;strokeColor=none;fillColor=none;align=center;verticalAlign=middle;rounded=0;fontSize=21;fontColor=#666666;whiteSpace=wrap;" vertex="1" parent="1">
          <mxGeometry x="1152.25" y="-262" width="18.5" height="18" as="geometry" />
        </mxCell>
        <mxCell id="WwHgvZpowAIh_IYd4Kne-34" value="" style="shape=image;verticalLabelPosition=bottom;labelBackgroundColor=#ffffff;verticalAlign=top;aspect=fixed;imageAspect=0;image=data:image/svg+xml,PHN2ZyB4bWxucz0iaHR0cDovL3d3dy53My5vcmcvMjAwMC9zdmciIHhtbG5zOnhsaW5rPSJodHRwOi8vd3d3LnczLm9yZy8xOTk5L3hsaW5rIiB3aWR0aD0iOTNweCIgaGVpZ2h0PSI5MHB4IiB2aWV3Qm94PSIwIDAgOTMgOTAiIHZlcnNpb249IjEuMSI+JiN4YTsgICAgPCEtLSBHZW5lcmF0b3I6IFNrZXRjaCA1Ny4xICg4MzA4OCkgLSBodHRwczovL3NrZXRjaC5jb20gLS0+JiN4YTsgICAgPHRpdGxlPmt1YmVybmV0ZXNfaWNvbjwvdGl0bGU+JiN4YTsgICAgPGRlc2M+Q3JlYXRlZCB3aXRoIFNrZXRjaC48L2Rlc2M+JiN4YTsgICAgPGcgaWQ9IlBhZ2UtMSIgc3Ryb2tlPSJub25lIiBzdHJva2Utd2lkdGg9IjEiIGZpbGw9Im5vbmUiIGZpbGwtcnVsZT0iZXZlbm9kZCI+JiN4YTsgICAgICAgIDxnIGlkPSJrdWJlcm5ldGVzX2ljb24iIHRyYW5zZm9ybT0idHJhbnNsYXRlKDIuMDAwMDAwLCAyLjAwMDAwMCkiIGZpbGwtcnVsZT0ibm9uemVybyI+JiN4YTsgICAgICAgICAgICA8cGF0aCBkPSJNODAuMywxOS4zIEM3OS44LDE3LjcgNzguNiwxNi40IDc3LjEsMTUuNiBMNDYuNiwxIEM0NS44LDAuNiA0NC45LDAuNSA0NC4xLDAuNSBDNDMuMywwLjUgNDIuNCwwLjUgNDEuNiwwLjcgTDExLjEsMTUuNCBDOS42LDE2LjEgOC41LDE3LjQgOC4xLDE5LjEgTDAuNiw1MiBDMC4zLDUzLjcgMC43LDU1LjQgMS43LDU2LjggTDIyLjgsODIuOSBDMjQsODQuMSAyNS43LDg0LjkgMjcuNCw4NSBMNjEsODUgQzYyLjgsODUuMiA2NC41LDg0LjQgNjUuNiw4Mi45IEw4Ni43LDU2LjggQzg3LjcsNTUuNCA4OC4xLDUzLjcgODcuOSw1MiBMODAuMywxOS4zIFoiIGlkPSJQYXRoIiBzdHJva2U9IiNGRkZGRkYiIHN0cm9rZS13aWR0aD0iNSIgZmlsbD0iI0ZGRkZGRiIvPiYjeGE7ICAgICAgICAgICAgPHBhdGggZD0iTTgwLjMsMTkuMyBDNzkuOCwxNy43IDc4LjYsMTYuNCA3Ny4xLDE1LjYgTDQ2LjYsMSBDNDUuOCwwLjYgNDQuOSwwLjUgNDQuMSwwLjUgQzQzLjMsMC41IDQyLjQsMC41IDQxLjYsMC43IEwxMS4xLDE1LjQgQzkuNiwxNi4xIDguNSwxNy40IDguMSwxOS4xIEwwLjYsNTIgQzAuMyw1My43IDAuNyw1NS40IDEuNyw1Ni44IEwyMi44LDgyLjkgQzI0LDg0LjEgMjUuNyw4NC45IDI3LjQsODUgTDYxLDg1IEM2Mi44LDg1LjIgNjQuNSw4NC40IDY1LjYsODIuOSBMODYuNyw1Ni44IEM4Ny43LDU1LjQgODguMSw1My43IDg3LjksNTIgTDgwLjMsMTkuMyBaIiBpZD0iUGF0aCIgZmlsbD0iIzMyNkRFNiIvPiYjeGE7ICAgICAgICAgICAgPHBhdGggZD0iTTc1LjYsNTAuNyBMNzUuNiw1MC43IEM3NS41LDUwLjcgNzUuNCw1MC43IDc1LjQsNTAuNiBDNzUuNCw1MC41IDc1LjIsNTAuNSA3NSw1MC41IEM3NC42LDUwLjQgNzQuMiw1MC40IDczLjgsNTAuNCBDNzMuNiw1MC40IDczLjQsNTAuNCA3My4yLDUwLjMgTDczLjEsNTAuMyBDNzIsNTAuMiA3MC44LDUwIDY5LjcsNDkuNyBDNjkuNCw0OS42IDY5LjEsNDkuMyA2OSw0OSBDNjkuMSw0OSA2OSw0OSA2OSw0OSBMNjksNDkgTDY4LjIsNDguOCBDNjguNiw0NS45IDY4LjQsNDIuOSA2Ny44LDQwIEM2Ny4xLDM3LjEgNjUuOSwzNC4zIDY0LjMsMzEuOCBMNjQuOSwzMS4yIEw2NC45LDMxLjIgTDY0LjksMzEuMSBDNjQuOSwzMC44IDY1LDMwLjQgNjUuMiwzMC4yIEM2Ni4xLDI5LjQgNjcsMjguOCA2OCwyOC4yIEw2OCwyOC4yIEM2OC4yLDI4LjEgNjguNCwyOCA2OC42LDI3LjkgQzY5LDI3LjcgNjkuMywyNy41IDY5LjcsMjcuMyBDNjkuOCwyNy4yIDY5LjksMjcuMiA3MCwyNy4xIEM3MC4xLDI3IDcwLDI3IDcwLDI2LjkgTDcwLDI2LjkgQzcwLjksMjYuMiA3MS4xLDI1IDcwLjQsMjQuMSBDNzAuMSwyMy43IDY5LjUsMjMuNCA2OSwyMy40IEM2OC41LDIzLjQgNjgsMjMuNiA2Ny42LDIzLjkgTDY3LjYsMjMuOSBMNjcuNSwyNCBDNjcuNCwyNC4xIDY3LjMsMjQuMiA2Ny4yLDI0LjIgQzY2LjksMjQuNSA2Ni42LDI0LjggNjYuNCwyNS4xIEM2Ni4zLDI1LjMgNjYuMSwyNS40IDY2LDI1LjUgTDY2LDI1LjUgQzY1LjMsMjYuMyA2NC40LDI3LjEgNjMuNSwyNy43IEM2My4zLDI3LjggNjMuMSwyNy45IDYyLjksMjcuOSBDNjIuOCwyNy45IDYyLjYsMjcuOSA2Mi41LDI3LjggTDYyLjQsMjcuOCBMNjEuNiwyOC4zIEM2MC44LDI3LjUgNTkuOSwyNi43IDU5LjEsMjUuOSBDNTUuNCwyMyA1MC44LDIxLjIgNDYuMSwyMC43IEw0NiwxOS45IEw0NiwxOS45IEw0NiwyMCBDNDUuNywxOS44IDQ1LjYsMTkuNSA0NS41LDE5LjIgQzQ1LjUsMTguMSA0NS41LDE3IDQ1LjcsMTUuOCBMNDUuNywxNS43IEM0NS43LDE1LjUgNDUuOCwxNS4zIDQ1LjgsMTUuMSBDNDUuOSwxNC43IDQ1LjksMTQuMyA0NiwxMy45IEw0NiwxMy4zIEw0NiwxMy4zIEM0Ni4xLDEyLjMgNDUuMywxMS4zIDQ0LjMsMTEuMiBDNDMuNywxMS4xIDQzLjEsMTEuNCA0Mi42LDExLjkgQzQyLjIsMTIuMyA0MiwxMi44IDQyLDEzLjMgTDQyLDEzLjMgTDQyLDEzLjggQzQyLDE0LjIgNDIuMSwxNC42IDQyLjIsMTUgQzQyLjMsMTUuMiA0Mi4zLDE1LjQgNDIuMywxNS42IEw0Mi4zLDE1LjcgQzQyLjUsMTYuOCA0Mi41LDE3LjkgNDIuNSwxOS4xIEM0Mi40LDE5LjQgNDIuMywxOS43IDQyLDE5LjkgTDQyLDIwLjEgTDQyLDIwLjEgTDQxLjksMjAuOSBDNDAuOCwyMSAzOS43LDIxLjIgMzguNSwyMS40IEMzMy44LDIyLjQgMjkuNSwyNC45IDI2LjIsMjguNCBMMjUuNiwyOCBMMjUuNSwyOCBDMjUuNCwyOCAyNS4zLDI4LjEgMjUuMSwyOC4xIEMyNC45LDI4LjEgMjQuNywyOCAyNC41LDI3LjkgQzIzLjYsMjcuMiAyMi43LDI2LjQgMjIsMjUuNiBMMjIsMjUuNiBDMjEuOSwyNS40IDIxLjcsMjUuMyAyMS42LDI1LjIgQzIxLjMsMjQuOSAyMS4xLDI0LjYgMjAuOCwyNC4zIEMyMC43LDI0LjIgMjAuNiwyNC4yIDIwLjUsMjQuMSBDMjAuNCwyNCAyMC40LDI0IDIwLjQsMjQgTDIwLjQsMjQgQzIwLDIzLjcgMTkuNSwyMy41IDE5LDIzLjUgQzE4LjQsMjMuNSAxNy45LDIzLjcgMTcuNiwyNC4yIEMxNywyNS4xIDE3LjIsMjYuMyAxOCwyNyBMMTgsMjcgQzE4LjEsMjcgMTguMSwyNy4xIDE4LjEsMjcuMSBDMTguMSwyNy4xIDE4LjMsMjcuMyAxOC40LDI3LjMgQzE4LjcsMjcuNSAxOS4xLDI3LjcgMTkuNSwyNy45IEMxOS43LDI4IDE5LjksMjguMSAyMC4xLDI4LjIgTDIwLjEsMjguMiBDMjEuMSwyOC44IDIyLjEsMjkuNCAyMi45LDMwLjIgQzIzLjEsMzAuNCAyMy4zLDMwLjggMjMuMiwzMS4xIEwyMy4yLDMxIEwyMy4yLDMxIEwyMy44LDMxLjYgQzIzLjcsMzEuOCAyMy42LDMxLjkgMjMuNSwzMi4xIEMyMC40LDM3IDE5LjEsNDIuOCAyMCw0OC41IEwxOS4yLDQ4LjcgTDE5LjIsNDguNyBDMTkuMiw0OC44IDE5LjEsNDguOCAxOS4xLDQ4LjggQzE5LDQ5LjEgMTguNyw0OS4zIDE4LjQsNDkuNSBDMTcuMyw0OS44IDE2LjIsNTAgMTUsNTAuMSBMMTUsNTAuMSBDMTQuOCw1MC4xIDE0LjYsNTAuMSAxNC40LDUwLjIgQzE0LDUwLjIgMTMuNiw1MC4zIDEzLjIsNTAuMyBDMTMuMSw1MC4zIDEzLDUwLjQgMTIuOCw1MC40IEMxMi43LDUwLjQgMTIuNyw1MC40IDEyLjYsNTAuNSBMMTIuNiw1MC41IEMxMS41LDUwLjcgMTAuOCw1MS43IDExLDUyLjggQzExLDUyLjggMTEsNTIuOCAxMSw1Mi44IEMxMS4yLDUzLjcgMTIuMSw1NC4zIDEzLDU0LjIgQzEzLjIsNTQuMiAxMy4zLDU0LjIgMTMuNSw1NC4xIEwxMy41LDU0LjEgQzEzLjYsNTQuMSAxMy42LDU0LjEgMTMuNiw1NCBDMTMuNiw1My45IDEzLjksNTQgMTQsNTQgQzE0LjQsNTMuOSAxNC44LDUzLjcgMTUuMSw1My42IEMxNS4zLDUzLjUgMTUuNSw1My40IDE1LjcsNTMuNCBMMTUuOCw1My40IEMxNi45LDUzIDE3LjksNTIuNyAxOS4xLDUyLjUgTDE5LjIsNTIuNSBDMTkuNSw1Mi41IDE5LjgsNTIuNiAyMCw1Mi44IEMyMC4xLDUyLjggMjAuMSw1Mi45IDIwLjEsNTIuOSBMMjAuMSw1Mi45IEwyMSw1Mi44IEMyMi41LDU3LjQgMjUuMyw2MS41IDI5LjIsNjQuNSBDMzAuMSw2NS4yIDMwLjksNjUuOCAzMS45LDY2LjMgTDMxLjQsNjcgTDMxLjQsNjcgQzMxLjQsNjcuMSAzMS41LDY3LjEgMzEuNSw2Ny4xIEMzMS43LDY3LjQgMzEuNyw2Ny44IDMxLjYsNjguMSBDMzEuMiw2OS4xIDMwLjYsNzAuMSAzMCw3MSBMMzAsNzEuMSBDMjkuOSw3MS4zIDI5LjgsNzEuNCAyOS42LDcxLjYgQzI5LjQsNzEuOCAyOS4yLDcyLjIgMjguOSw3Mi42IEMyOC44LDcyLjcgMjguOCw3Mi44IDI4LjcsNzIuOSBDMjguNyw3Mi45IDI4LjcsNzMgMjguNiw3MyBMMjguNiw3MyBDMjguMSw3NCAyOC41LDc1LjIgMjkuNCw3NS43IEMyOS42LDc1LjggMjkuOSw3NS45IDMwLjEsNzUuOSBDMzAuOSw3NS45IDMxLjYsNzUuNCAzMiw3NC43IEwzMiw3NC43IEMzMiw3NC43IDMyLDc0LjYgMzIuMSw3NC42IEMzMi4xLDc0LjUgMzIuMiw3NC40IDMyLjMsNzQuMyBDMzIuNCw3My45IDMyLjYsNzMuNiAzMi43LDczLjIgTDMyLjksNzIuNiBMMzIuOSw3Mi42IEMzMy4yLDcxLjUgMzMuNyw3MC41IDM0LjIsNjkuNSBDMzQuNCw2OS4yIDM0LjcsNjkgMzUsNjguOSBDMzUuMSw2OC45IDM1LjEsNjguOSAzNS4xLDY4LjggTDM1LjEsNjguOCBMMzUuNSw2OCBDMzguMyw2OS4xIDQxLjIsNjkuNiA0NC4yLDY5LjYgQzQ2LDY5LjYgNDcuOCw2OS40IDQ5LjYsNjguOSBDNTAuNyw2OC43IDUxLjgsNjguMyA1Mi44LDY4IEw1My4yLDY4LjcgTDUzLjIsNjguNyBDNTMuMyw2OC43IDUzLjMsNjguNyA1My4zLDY4LjggQzUzLjYsNjguOSA1My45LDY5LjEgNTQuMSw2OS40IEM1NC42LDcwLjQgNTUuMSw3MS40IDU1LjQsNzIuNSBMNTUuNCw3Mi42IEw1NS42LDczLjIgQzU1LjcsNzMuNiA1NS44LDc0IDU2LDc0LjMgQzU2LjEsNzQuNCA1Ni4xLDc0LjUgNTYuMiw3NC42IEM1Ni4yLDc0LjYgNTYuMiw3NC43IDU2LjMsNzQuNyBMNTYuMyw3NC43IEM1Ni43LDc1LjQgNTcuNCw3NS45IDU4LjIsNzUuOSBDNTguNSw3NS45IDU4LjcsNzUuOCA1OSw3NS43IEM1OS40LDc1LjUgNTkuOCw3NS4xIDU5LjksNzQuNiBDNjAsNzQuMSA2MCw3My42IDU5LjgsNzMuMSBMNTkuOCw3My4xIEM1OS44LDczIDU5LjcsNzMgNTkuNyw3MyBDNTkuNyw3Mi45IDU5LjYsNzIuOCA1OS41LDcyLjcgQzU5LjMsNzIuMyA1OS4xLDcyIDU4LjgsNzEuNyBDNTguNyw3MS41IDU4LjYsNzEuNCA1OC40LDcxLjIgTDU4LjQsNzEgQzU3LjcsNzAuMSA1Ny4yLDY5LjEgNTYuOCw2OC4xIEM1Ni43LDY3LjggNTYuNyw2Ny40IDU2LjksNjcuMSBDNTYuOSw2NyA1Nyw2NyA1Nyw2NyBMNTcsNjcgTDU2LjcsNjYuMiBDNjEuOCw2My4xIDY1LjcsNTguMyA2Ny41LDUyLjYgTDY4LjMsNTIuNyBMNjguMyw1Mi43IEM2OC40LDUyLjcgNjguNCw1Mi42IDY4LjQsNTIuNiBDNjguNiw1Mi40IDY4LjksNTIuMyA2OS4yLDUyLjMgTDY5LjMsNTIuMyBDNzAuNCw1Mi41IDcxLjUsNTIuOCA3Mi41LDUzLjIgTDcyLjYsNTMuMiBDNzIuOCw1My4zIDczLDUzLjQgNzMuMiw1My40IEM3My42LDUzLjYgNzMuOSw1My44IDc0LjMsNTMuOSBDNzQuNCw1My45IDc0LjUsNTQgNzQuNyw1NCBDNzQuOCw1NCA3NC44LDU0IDc0LjksNTQuMSBMNzQuOSw1NC4xIEM3NS4xLDU0LjIgNzUuMiw1NC4yIDc1LjQsNTQuMiBDNzYuMyw1NC4yIDc3LjEsNTMuNiA3Ny40LDUyLjggQzc3LjMsNTEuNyA3Ni41LDUwLjkgNzUuNiw1MC43IFogTTQ2LjcsNDcuNiBMNDQsNDguOSBMNDEuMyw0Ny42IEw0MC42LDQ0LjcgTDQyLjUsNDIuMyBMNDUuNSw0Mi4zIEw0Ny40LDQ0LjcgTDQ2LjcsNDcuNiBaIE02Myw0MS4xIEM2My41LDQzLjIgNjMuNiw0NS4zIDYzLjQsNDcuNCBMNTMuOSw0NC43IEw1My45LDQ0LjcgQzUzLDQ0LjUgNTIuNSw0My42IDUyLjcsNDIuNyBDNTIuOCw0Mi40IDUyLjksNDIuMiA1My4xLDQyIEw2MC42LDM1LjIgQzYxLjcsMzcgNjIuNSwzOSA2Myw0MS4xIFogTTU3LjYsMzEuNSBMNDkuNCwzNy4zIEM0OC43LDM3LjcgNDcuNywzNy42IDQ3LjIsMzYuOSBDNDcsMzYuNyA0Ni45LDM2LjUgNDYuOSwzNi4yIEw0Ni4zLDI2LjEgQzUwLjcsMjYuNiA1NC42LDI4LjUgNTcuNiwzMS41IEw1Ny42LDMxLjUgWiBNMzkuNSwyNi40IEw0MS41LDI2IEw0MSwzNiBMNDEsMzYgQzQxLDM2LjkgNDAuMiwzNy42IDM5LjMsMzcuNiBDMzksMzcuNiAzOC44LDM3LjUgMzguNSwzNy40IEwzMC4yLDMxLjUgQzMyLjgsMjkgMzYsMjcuMiAzOS41LDI2LjQgWiBNMjcuMywzNS4yIEwzNC43LDQxLjggTDM0LjcsNDEuOCBDMzUuNCw0Mi40IDM1LjUsNDMuNCAzNC45LDQ0LjEgQzM0LjcsNDQuNCAzNC41LDQ0LjUgMzQuMSw0NC42IEwyNC40LDQ3LjQgQzI0LjEsNDMuMiAyNS4xLDM4LjkgMjcuMywzNS4yIFogTTI1LjYsNTIuMSBMMzUuNSw1MC40IEMzNi4zLDUwLjQgMzcuMSw1MC45IDM3LjIsNTEuNyBDMzcuMyw1MiAzNy4zLDUyLjQgMzcuMSw1Mi43IEwzNy4xLDUyLjcgTDMzLjMsNjEuOSBDMjkuOCw1OS42IDI3LDU2LjEgMjUuNiw1Mi4xIFogTTQ4LjMsNjQuNSBDNDYuOSw2NC44IDQ1LjUsNjUgNDQsNjUgQzQxLjksNjUgMzkuNyw2NC42IDM3LjcsNjQgTDQyLjYsNTUuMSBDNDMuMSw1NC41IDQzLjksNTQuMyA0NC42LDU0LjcgQzQ0LjksNTQuOSA0NS4xLDU1LjEgNDUuNCw1NS40IEw0NS40LDU1LjQgTDUwLjIsNjQuMSBDNDkuNiw2NC4yIDQ5LDY0LjMgNDguMyw2NC41IFogTTYwLjUsNTUuOCBDNTksNTguMiA1Ni45LDYwLjMgNTQuNSw2MS44IEw1MC42LDUyLjQgQzUwLjQsNTEuNiA1MC44LDUwLjggNTEuNSw1MC41IEM1MS44LDUwLjQgNTIuMSw1MC4zIDUyLjQsNTAuMyBMNjIuNCw1MiBDNjEuOSw1My40IDYxLjMsNTQuNyA2MC41LDU1LjggWiIgaWQ9IlNoYXBlIiBmaWxsPSIjRkZGRkZGIi8+JiN4YTsgICAgICAgIDwvZz4mI3hhOyAgICA8L2c+JiN4YTs8L3N2Zz4=;" parent="1" vertex="1">
          <mxGeometry x="1300" y="-80" width="40" height="39" as="geometry" />
        </mxCell>
        <mxCell id="SLsqdyoGx3VEHhg5HpJQ-32" value="" style="group" vertex="1" connectable="0" parent="1">
          <mxGeometry x="80" y="-299" width="238.5" height="84" as="geometry" />
        </mxCell>
        <mxCell id="SLsqdyoGx3VEHhg5HpJQ-26" value="" style="group" vertex="1" connectable="0" parent="SLsqdyoGx3VEHhg5HpJQ-32">
          <mxGeometry width="238.5" height="84" as="geometry" />
        </mxCell>
        <mxCell id="SLsqdyoGx3VEHhg5HpJQ-19" value="" style="rounded=0;whiteSpace=wrap;html=1;strokeWidth=4;strokeColor=#666666;" vertex="1" parent="SLsqdyoGx3VEHhg5HpJQ-26">
          <mxGeometry width="238.5" height="84" as="geometry" />
        </mxCell>
        <mxCell id="SLsqdyoGx3VEHhg5HpJQ-20" value="" style="shape=image;verticalLabelPosition=bottom;labelBackgroundColor=#ffffff;verticalAlign=top;aspect=fixed;imageAspect=0;image=data:image/svg+xml,PHN2ZyB4bWxucz0iaHR0cDovL3d3dy53My5vcmcvMjAwMC9zdmciIHhtbG5zOnhsaW5rPSJodHRwOi8vd3d3LnczLm9yZy8xOTk5L3hsaW5rIiB3aWR0aD0iMjU2cHgiIGhlaWdodD0iMjU2cHgiIHZpZXdCb3g9IjAgMCAyNTYgMjU2IiB2ZXJzaW9uPSIxLjEiPiYjeGE7ICAgIDwhLS0gR2VuZXJhdG9yOiBTa2V0Y2ggNTcuMSAoODMwODgpIC0gaHR0cHM6Ly9za2V0Y2guY29tIC0tPiYjeGE7ICAgIDx0aXRsZT5GYXZpY29uQDF4PC90aXRsZT4mI3hhOyAgICA8ZGVzYz5DcmVhdGVkIHdpdGggU2tldGNoLjwvZGVzYz4mI3hhOyAgICA8ZyBpZD0iRmF2aWNvbiIgc3Ryb2tlPSJub25lIiBzdHJva2Utd2lkdGg9IjEiIGZpbGw9Im5vbmUiIGZpbGwtcnVsZT0iZXZlbm9kZCI+JiN4YTsgICAgICAgIDxwYXRoIGQ9Ik00MCw4IEwyMTcsOCBDMjM0LjY3MzExMiw4IDI0OSwyMi4zMjY4ODggMjQ5LDQwIEwyNDksMjE3IEMyNDksMjM0LjY3MzExMiAyMzQuNjczMTEyLDI0OSAyMTcsMjQ5IEw0MCwyNDkgQzIyLjMyNjg4OCwyNDkgOCwyMzQuNjczMTEyIDgsMjE3IEw4LDQwIEM4LDIyLjMyNjg4OCAyMi4zMjY4ODgsOCA0MCw4IFoiIGlkPSJSZWN0YW5nbGUiIGZpbGw9IiMwMDlFREEiLz4mI3hhOyAgICAgICAgPHBhdGggZD0iTTE3MC4xMzcyNTUsMTAyLjkzNzI1NSBMMTcwLjEzNzI1NSw4Ni4zMTk2MDc4IEMxNzAuMTM3MjU1LDYyLjgzMzMzMzMgMTUwLjYzOTIxNiw0NCAxMjcuMTUyOTQxLDQ0IEMxMDMuNjY2NjY3LDQ0IDg0LjE2ODYyNzUsNjMuMDU0OTAyIDg0LjE2ODYyNzUsODYuMzE5NjA3OCBMODQuMTY4NjI3NSwxMDYuMjYwNzg0IEM3Mi44Njg2Mjc1LDExNy41NjA3ODQgNjYsMTMzLjI5MjE1NyA2NiwxNTAuNTc0NTEgQzY2LDE4NS4zNjA3ODQgOTQuMTM5MjE1NywyMTMuNSAxMjguOTI1NDksMjEzLjUgQzE2My43MTE3NjUsMjEzLjUgMTkxLjg1MDk4LDE4NS4zNjA3ODQgMTkxLjg1MDk4LDE1MC41NzQ1MSBDMTkyLjA3MjU0OSwxMzEuNTE5NjA4IDE4My40MzEzNzMsMTE0LjQ1ODgyNCAxNzAuMTM3MjU1LDEwMi45MzcyNTUgWiBNMTQwLjg5MDE5NiwxNzUuMzkwMTk2IEwxMTUuNDA5ODA0LDE3NS4zOTAxOTYgTDEyMi4yNzg0MzEsMTUyLjEyNTQ5IEMxMTcuMTgyMzUzLDE0OS45MDk4MDQgMTEzLjYzNzI1NSwxNDQuODEzNzI1IDExMy42MzcyNTUsMTM4LjgzMTM3MyBDMTEzLjYzNzI1NSwxMzAuODU0OTAyIDEyMC4yODQzMTQsMTI0LjIwNzg0MyAxMjguMjYwNzg0LDEyNC4yMDc4NDMgQzEzNi4yMzcyNTUsMTI0LjIwNzg0MyAxNDIuODg0MzE0LDEzMC44NTQ5MDIgMTQyLjg4NDMxNCwxMzguODMxMzczIEMxNDIuODg0MzE0LDE0NC44MTM3MjUgMTM5LjMzOTIxNiwxNDkuOTA5ODA0IDEzNC4yNDMxMzcsMTUyLjEyNTQ5IEwxNDAuODkwMTk2LDE3NS4zOTAxOTYgWiBNMTU1LjUxMzcyNSw5Ni4yOTAxOTYxIEMxNDkuOTc0NTEsOTEuNDE1Njg2MyAxNDAuODkwMTk2LDg3LjY0OTAxOTYgMTI5LjE0NzA1OSw4Ny42NDkwMTk2IEMxMTcuNDAzOTIyLDg3LjY0OTAxOTYgMTA2LjU0NzA1OSw4OS44NjQ3MDU5IDk3LjI0MTE3NjUsOTUuNDAzOTIxNiBMOTcuMjQxMTc2NSw5My4xODgyMzUzIEM5Ny4yNDExNzY1LDcxLjAzMTM3MjUgMTA2LjMyNTQ5LDU4LjYyMzUyOTQgMTI4LjI2MDc4NCw1OC42MjM1Mjk0IEMxNTAuMTk2MDc4LDU4LjYyMzUyOTQgMTU1LjczNTI5NCw3Mi44MDM5MjE2IDE1NS43MzUyOTQsOTUuMTgyMzUyOSBMMTU1LjczNTI5NCw5Ni4yOTAxOTYxIEwxNTUuNTEzNzI1LDk2LjI5MDE5NjEgWiIgaWQ9IlNoYXBlIiBmaWxsPSIjRkZGRkZGIiBmaWxsLXJ1bGU9Im5vbnplcm8iLz4mI3hhOyAgICA8L2c+JiN4YTs8L3N2Zz4=;align=left;" vertex="1" parent="SLsqdyoGx3VEHhg5HpJQ-26">
          <mxGeometry x="12.5" y="18" width="49" height="49" as="geometry" />
        </mxCell>
        <mxCell id="SLsqdyoGx3VEHhg5HpJQ-21" value="CustomRessourceDefinition&lt;font&gt;&lt;span style=&quot;font-size: 16px&quot;&gt;&lt;br&gt;&lt;/span&gt;&lt;span style=&quot;font-size: 18px&quot;&gt;&lt;b&gt;Scan&lt;/b&gt;&lt;/span&gt;&lt;br&gt;&lt;/font&gt;" style="text;html=1;strokeColor=none;fillColor=none;align=left;verticalAlign=middle;whiteSpace=wrap;rounded=0;" vertex="1" parent="SLsqdyoGx3VEHhg5HpJQ-26">
          <mxGeometry x="70" y="17.5" width="144" height="50" as="geometry" />
        </mxCell>
        <mxCell id="SLsqdyoGx3VEHhg5HpJQ-25" value="" style="group" vertex="1" connectable="0" parent="1">
          <mxGeometry x="590" y="-137" width="220" height="84" as="geometry" />
        </mxCell>
        <mxCell id="WwHgvZpowAIh_IYd4Kne-27" value="" style="rounded=0;whiteSpace=wrap;html=1;strokeWidth=4;strokeColor=#666666;" parent="SLsqdyoGx3VEHhg5HpJQ-25" vertex="1">
          <mxGeometry width="220" height="84" as="geometry" />
        </mxCell>
        <mxCell id="WwHgvZpowAIh_IYd4Kne-28" value="" style="shape=image;verticalLabelPosition=bottom;labelBackgroundColor=#ffffff;verticalAlign=top;aspect=fixed;imageAspect=0;image=data:image/svg+xml,PHN2ZyB4bWxucz0iaHR0cDovL3d3dy53My5vcmcvMjAwMC9zdmciIHhtbG5zOnhsaW5rPSJodHRwOi8vd3d3LnczLm9yZy8xOTk5L3hsaW5rIiB3aWR0aD0iMjU2cHgiIGhlaWdodD0iMjU2cHgiIHZpZXdCb3g9IjAgMCAyNTYgMjU2IiB2ZXJzaW9uPSIxLjEiPiYjeGE7ICAgIDwhLS0gR2VuZXJhdG9yOiBTa2V0Y2ggNTcuMSAoODMwODgpIC0gaHR0cHM6Ly9za2V0Y2guY29tIC0tPiYjeGE7ICAgIDx0aXRsZT5GYXZpY29uQDF4PC90aXRsZT4mI3hhOyAgICA8ZGVzYz5DcmVhdGVkIHdpdGggU2tldGNoLjwvZGVzYz4mI3hhOyAgICA8ZyBpZD0iRmF2aWNvbiIgc3Ryb2tlPSJub25lIiBzdHJva2Utd2lkdGg9IjEiIGZpbGw9Im5vbmUiIGZpbGwtcnVsZT0iZXZlbm9kZCI+JiN4YTsgICAgICAgIDxwYXRoIGQ9Ik00MCw4IEwyMTcsOCBDMjM0LjY3MzExMiw4IDI0OSwyMi4zMjY4ODggMjQ5LDQwIEwyNDksMjE3IEMyNDksMjM0LjY3MzExMiAyMzQuNjczMTEyLDI0OSAyMTcsMjQ5IEw0MCwyNDkgQzIyLjMyNjg4OCwyNDkgOCwyMzQuNjczMTEyIDgsMjE3IEw4LDQwIEM4LDIyLjMyNjg4OCAyMi4zMjY4ODgsOCA0MCw4IFoiIGlkPSJSZWN0YW5nbGUiIGZpbGw9IiMwMDlFREEiLz4mI3hhOyAgICAgICAgPHBhdGggZD0iTTE3MC4xMzcyNTUsMTAyLjkzNzI1NSBMMTcwLjEzNzI1NSw4Ni4zMTk2MDc4IEMxNzAuMTM3MjU1LDYyLjgzMzMzMzMgMTUwLjYzOTIxNiw0NCAxMjcuMTUyOTQxLDQ0IEMxMDMuNjY2NjY3LDQ0IDg0LjE2ODYyNzUsNjMuMDU0OTAyIDg0LjE2ODYyNzUsODYuMzE5NjA3OCBMODQuMTY4NjI3NSwxMDYuMjYwNzg0IEM3Mi44Njg2Mjc1LDExNy41NjA3ODQgNjYsMTMzLjI5MjE1NyA2NiwxNTAuNTc0NTEgQzY2LDE4NS4zNjA3ODQgOTQuMTM5MjE1NywyMTMuNSAxMjguOTI1NDksMjEzLjUgQzE2My43MTE3NjUsMjEzLjUgMTkxLjg1MDk4LDE4NS4zNjA3ODQgMTkxLjg1MDk4LDE1MC41NzQ1MSBDMTkyLjA3MjU0OSwxMzEuNTE5NjA4IDE4My40MzEzNzMsMTE0LjQ1ODgyNCAxNzAuMTM3MjU1LDEwMi45MzcyNTUgWiBNMTQwLjg5MDE5NiwxNzUuMzkwMTk2IEwxMTUuNDA5ODA0LDE3NS4zOTAxOTYgTDEyMi4yNzg0MzEsMTUyLjEyNTQ5IEMxMTcuMTgyMzUzLDE0OS45MDk4MDQgMTEzLjYzNzI1NSwxNDQuODEzNzI1IDExMy42MzcyNTUsMTM4LjgzMTM3MyBDMTEzLjYzNzI1NSwxMzAuODU0OTAyIDEyMC4yODQzMTQsMTI0LjIwNzg0MyAxMjguMjYwNzg0LDEyNC4yMDc4NDMgQzEzNi4yMzcyNTUsMTI0LjIwNzg0MyAxNDIuODg0MzE0LDEzMC44NTQ5MDIgMTQyLjg4NDMxNCwxMzguODMxMzczIEMxNDIuODg0MzE0LDE0NC44MTM3MjUgMTM5LjMzOTIxNiwxNDkuOTA5ODA0IDEzNC4yNDMxMzcsMTUyLjEyNTQ5IEwxNDAuODkwMTk2LDE3NS4zOTAxOTYgWiBNMTU1LjUxMzcyNSw5Ni4yOTAxOTYxIEMxNDkuOTc0NTEsOTEuNDE1Njg2MyAxNDAuODkwMTk2LDg3LjY0OTAxOTYgMTI5LjE0NzA1OSw4Ny42NDkwMTk2IEMxMTcuNDAzOTIyLDg3LjY0OTAxOTYgMTA2LjU0NzA1OSw4OS44NjQ3MDU5IDk3LjI0MTE3NjUsOTUuNDAzOTIxNiBMOTcuMjQxMTc2NSw5My4xODgyMzUzIEM5Ny4yNDExNzY1LDcxLjAzMTM3MjUgMTA2LjMyNTQ5LDU4LjYyMzUyOTQgMTI4LjI2MDc4NCw1OC42MjM1Mjk0IEMxNTAuMTk2MDc4LDU4LjYyMzUyOTQgMTU1LjczNTI5NCw3Mi44MDM5MjE2IDE1NS43MzUyOTQsOTUuMTgyMzUyOSBMMTU1LjczNTI5NCw5Ni4yOTAxOTYxIEwxNTUuNTEzNzI1LDk2LjI5MDE5NjEgWiIgaWQ9IlNoYXBlIiBmaWxsPSIjRkZGRkZGIiBmaWxsLXJ1bGU9Im5vbnplcm8iLz4mI3hhOyAgICA8L2c+JiN4YTs8L3N2Zz4=;align=left;" parent="SLsqdyoGx3VEHhg5HpJQ-25" vertex="1">
          <mxGeometry x="12.5" y="18" width="49" height="49" as="geometry" />
        </mxCell>
        <mxCell id="WwHgvZpowAIh_IYd4Kne-29" value="secureCodeBox&lt;font&gt;&lt;span style=&quot;font-size: 16px&quot;&gt;&lt;br&gt;&lt;/span&gt;&lt;span style=&quot;font-size: 18px&quot;&gt;&lt;b&gt;Operator&lt;/b&gt;&lt;/span&gt;&lt;br&gt;&lt;/font&gt;" style="text;html=1;strokeColor=none;fillColor=none;align=left;verticalAlign=middle;whiteSpace=wrap;rounded=0;" parent="SLsqdyoGx3VEHhg5HpJQ-25" vertex="1">
          <mxGeometry x="70" y="17.5" width="144" height="50" as="geometry" />
        </mxCell>
        <mxCell id="SLsqdyoGx3VEHhg5HpJQ-41" style="edgeStyle=orthogonalEdgeStyle;rounded=0;orthogonalLoop=1;jettySize=auto;html=1;entryX=0.5;entryY=1;entryDx=0;entryDy=0;endArrow=block;endFill=1;strokeColor=#666666;strokeWidth=4;" edge="1" parent="1" source="WwHgvZpowAIh_IYd4Kne-27" target="SLsqdyoGx3VEHhg5HpJQ-19">
          <mxGeometry relative="1" as="geometry" />
        </mxCell>
        <mxCell id="SLsqdyoGx3VEHhg5HpJQ-70" value="" style="ellipse;whiteSpace=wrap;html=1;strokeColor=none;fontSize=14;fontColor=#666666;fillColor=#009EDA;" vertex="1" parent="1">
          <mxGeometry x="184.5" y="-414" width="28.5" height="30" as="geometry" />
        </mxCell>
        <mxCell id="SLsqdyoGx3VEHhg5HpJQ-72" value="&lt;font style=&quot;font-size: 21px;&quot; color=&quot;#FFFFFF&quot;&gt;&lt;b style=&quot;font-size: 21px;&quot;&gt;1&lt;/b&gt;&lt;/font&gt;" style="text;html=1;strokeColor=none;fillColor=none;align=center;verticalAlign=middle;rounded=0;fontSize=21;fontColor=#666666;whiteSpace=wrap;" vertex="1" parent="1">
          <mxGeometry x="189.5" y="-407" width="18.5" height="18" as="geometry" />
        </mxCell>
        <mxCell id="SLsqdyoGx3VEHhg5HpJQ-89" value="" style="shape=image;verticalLabelPosition=bottom;labelBackgroundColor=#ffffff;verticalAlign=top;aspect=fixed;imageAspect=0;image=data:image/svg+xml,PHN2ZyBpZD0iZW1vamkiIHhtbG5zPSJodHRwOi8vd3d3LnczLm9yZy8yMDAwL3N2ZyIgdmlld0JveD0iMCAwIDcyIDcyIj4mI3hhOyAgPGcgaWQ9ImNvbG9yIj4mI3hhOyAgICA8cmVjdCB4PSIxMSIgeT0iMTAuOTU4MyIgZmlsbD0iIzNGM0YzRiIgc3Ryb2tlPSJub25lIiBzdHJva2Utd2lkdGg9IjIiIHN0cm9rZS1saW5lY2FwPSJyb3VuZCIgc3Ryb2tlLWxpbmVqb2luPSJyb3VuZCIgc3Ryb2tlLW1pdGVybGltaXQ9IjEwIiB3aWR0aD0iNTAiIGhlaWdodD0iNTAiLz4mI3hhOyAgICA8cGF0aCBmaWxsPSIjRDBDRkNFIiBzdHJva2U9Im5vbmUiIHN0cm9rZS13aWR0aD0iMiIgc3Ryb2tlLWxpbmVjYXA9InJvdW5kIiBzdHJva2UtbGluZWpvaW49InJvdW5kIiBzdHJva2UtbWl0ZXJsaW1pdD0iMTAiIGQ9Ik01Mi41NDk4LDQ3LjExNzJjLTMuNTg2Nyw1LjMwOS05LjY2MDYsOC43OTk0LTE2LjU0OTgsOC43OTk0Yy0xMS4wMjI3LDAtMTkuOTU4My04LjkzNTYtMTkuOTU4My0xOS45NTgzUzI0Ljk3NzMsMTYsMzYsMTYgYzYuODU2OSwwLDEyLjkwNjEsMy40NTc4LDE2LjQ5OTIsOC43MjQ5Ii8+JiN4YTsgICAgPGNpcmNsZSBmaWxsPSIjRDBDRkNFIiBjeD0iMzUuOTI3MSIgY3k9IjM1Ljg4NyIgcj0iMTkuOTU4MyIgc3Ryb2tlPSJub25lIi8+JiN4YTsgICAgPHBhdGggZmlsbD0iI0QwQ0ZDRSIgZD0iTTE3LjUxMjgsMjYuMzg1OWMzLjA3OC01LjkzNzUsOC45NTQ0LTEwLjI4OTgsMTYuMDk3NS0xMS4xMjE0IGMxMS40Mjg5LTEuMzMwNSwyMS43NzI1LDYuODU1OCwyMy4xMDMsMTguMjg0N2MxLjMzMDUsMTEuNDI4OS02Ljg1NTgsMjEuNzcyNS0xOC4yODQ3LDIzLjEwMyBjLTcuMTA5NiwwLjgyNzctMTMuNzk5Mi0yLjAyNzQtMTguMTYwNC03LjA1NDkiIHN0cm9rZT0ibm9uZSIvPiYjeGE7ICAgIDxwYXRoIGZpbGw9IiNEMENGQ0UiIHN0cm9rZT0ibm9uZSIgc3Ryb2tlLXdpZHRoPSIyIiBzdHJva2UtbGluZWNhcD0icm91bmQiIHN0cm9rZS1saW5lam9pbj0icm91bmQiIHN0cm9rZS1taXRlcmxpbWl0PSIxMCIgZD0iTTUyLjU0OTgsNDcuMDQ1OGMtMy41ODY3LDUuMzA5LTkuNjYwNiw4Ljc5OTQtMTYuNTQ5OCw4Ljc5OTRjLTExLjAyMjcsMC0xOS45NTgzLTguOTM1Ni0xOS45NTgzLTE5Ljk1ODMgUzI0Ljk3NzMsMTUuOTI4NiwzNiwxNS45Mjg2YzYuODU2OSwwLDEyLjkwNjEsMy40NTc4LDE2LjQ5OTIsOC43MjQ5Ii8+JiN4YTsgICAgPGNpcmNsZSBmaWxsPSIjM0YzRjNGIiBzdHJva2U9Im5vbmUiIHN0cm9rZS13aWR0aD0iMiIgc3Ryb2tlLWxpbmVjYXA9InJvdW5kIiBzdHJva2UtbGluZWpvaW49InJvdW5kIiBzdHJva2UtbWl0ZXJsaW1pdD0iMTAiIGN4PSIzNiIgY3k9IjM1Ljk1ODMiIHI9IjUiLz4mI3hhOyAgICA8cG9seWxpbmUgZmlsbD0iI0QwQ0ZDRSIgc3Ryb2tlPSJub25lIiBzdHJva2Utd2lkdGg9IjIiIHN0cm9rZS1saW5lY2FwPSJyb3VuZCIgc3Ryb2tlLWxpbmVqb2luPSJyb3VuZCIgc3Ryb2tlLW1pdGVybGltaXQ9IjEwIiBwb2ludHM9IjQ0LDM2LjUwMDUgNDQsNDEuOTc1MSA2MSw0NC40MzM0IDYxLDM2LjUgNjEsMzYuNDMzNCA2MSwyOC41IDQ0LDMwLjk1ODMgNDQsMzYuNDMyOSIvPiYjeGE7ICA8L2c+JiN4YTsgIDxnIGlkPSJoYWlyIi8+JiN4YTsgIDxnIGlkPSJza2luIi8+JiN4YTsgIDxnIGlkPSJza2luLXNoYWRvdyIvPiYjeGE7ICA8ZyBpZD0ibGluZSI+JiN4YTsgICAgPHJlY3QgeD0iMTEiIHk9IjEwLjk1ODMiIGZpbGw9Im5vbmUiIHN0cm9rZT0iIzAwMDAwMCIgc3Ryb2tlLXdpZHRoPSIyIiBzdHJva2UtbGluZWNhcD0icm91bmQiIHN0cm9rZS1saW5lam9pbj0icm91bmQiIHN0cm9rZS1taXRlcmxpbWl0PSIxMCIgd2lkdGg9IjUwIiBoZWlnaHQ9IjUwIi8+JiN4YTsgICAgPHBhdGggZmlsbD0ibm9uZSIgc3Ryb2tlPSIjMDAwMDAwIiBzdHJva2Utd2lkdGg9IjIiIHN0cm9rZS1saW5lY2FwPSJyb3VuZCIgc3Ryb2tlLWxpbmVqb2luPSJyb3VuZCIgc3Ryb2tlLW1pdGVybGltaXQ9IjEwIiBkPSJNNTIuNTQ5OCw0Ny4xMTcyYy0zLjU4NjcsNS4zMDktOS42NjA2LDguNzk5NC0xNi41NDk4LDguNzk5NGMtMTEuMDIyNywwLTE5Ljk1ODMtOC45MzU2LTE5Ljk1ODMtMTkuOTU4M1MyNC45NzczLDE2LDM2LDE2IGM2Ljg1NjksMCwxMi45MDYxLDMuNDU3OCwxNi40OTkyLDguNzI0OSIvPiYjeGE7ICAgIDxwYXRoIGZpbGw9Im5vbmUiIHN0cm9rZT0iIzAwMDAwMCIgc3Ryb2tlLXdpZHRoPSIyIiBzdHJva2UtbGluZWNhcD0icm91bmQiIHN0cm9rZS1saW5lam9pbj0icm91bmQiIHN0cm9rZS1taXRlcmxpbWl0PSIxMCIgZD0iTTUyLjU0OTgsNDcuMDQ1OGMtMy41ODY3LDUuMzA5LTkuNjYwNiw4Ljc5OTQtMTYuNTQ5OCw4Ljc5OTRjLTExLjAyMjcsMC0xOS45NTgzLTguOTM1Ni0xOS45NTgzLTE5Ljk1ODMgUzI0Ljk3NzMsMTUuOTI4NiwzNiwxNS45Mjg2YzYuODU2OSwwLDEyLjkwNjEsMy40NTc4LDE2LjQ5OTIsOC43MjQ5Ii8+JiN4YTsgICAgPGNpcmNsZSBmaWxsPSJub25lIiBzdHJva2U9IiMwMDAwMDAiIHN0cm9rZS13aWR0aD0iMiIgc3Ryb2tlLWxpbmVjYXA9InJvdW5kIiBzdHJva2UtbGluZWpvaW49InJvdW5kIiBzdHJva2UtbWl0ZXJsaW1pdD0iMTAiIGN4PSIzNiIgY3k9IjM1Ljk1ODMiIHI9IjUiLz4mI3hhOyAgICA8cG9seWxpbmUgZmlsbD0ibm9uZSIgc3Ryb2tlPSIjMDAwMDAwIiBzdHJva2Utd2lkdGg9IjIiIHN0cm9rZS1saW5lY2FwPSJyb3VuZCIgc3Ryb2tlLWxpbmVqb2luPSJyb3VuZCIgc3Ryb2tlLW1pdGVybGltaXQ9IjEwIiBwb2ludHM9IjQ0LDM2LjUwMDUgNDQsNDEuOTc1MSA2MSw0NC40MzM0IDYxLDM2LjUgNjEsMzYuNDMzNCA2MSwyOC41IDQ0LDMwLjk1ODMgNDQsMzYuNDMyOSIvPiYjeGE7ICA8L2c+JiN4YTs8L3N2Zz4=;" vertex="1" parent="1">
          <mxGeometry x="1060" y="-402.25" width="48" height="48" as="geometry" />
        </mxCell>
        <mxCell id="SLsqdyoGx3VEHhg5HpJQ-90" value="" style="shape=image;verticalLabelPosition=bottom;labelBackgroundColor=#ffffff;verticalAlign=top;aspect=fixed;imageAspect=0;image=data:image/svg+xml,PHN2ZyBpZD0iZW1vamkiIHhtbG5zPSJodHRwOi8vd3d3LnczLm9yZy8yMDAwL3N2ZyIgdmlld0JveD0iMCAwIDcyIDcyIj4mI3hhOyAgPGcgaWQ9ImNvbG9yIj4mI3hhOyAgICA8cGF0aCBkPSJNMzkuNzc5Miw1Ny44ODE5SDUyLjc3VjQ0Ljg1MWM1LjI5NzYsMCwxMS42MzE0LDEuNCwxMS42MzE0LTYuMTkzNCwwLTYuNzYxMy02LjMzMzgtNS44NTM1LTExLjYzMTQtNS44NTM1VjE5LjUxMzNIMzkuNzc5MmMxLjgyMzktNS44MTU3LDEuODIzOS0xMS42MzE0LTQuOTc3NC0xMS42MzE0cy02LjczLDYuMzMzOC02LjczLDExLjYzMTRIMTQuNDAxNlYzMy41MjM5YzQuMjQzMy0xLjU3MTUsMTEuNjMxNC00LjQxODQsMTEuNjMxNCw1LjE3MzdzLTguNDgsNi41ODE0LTExLjYzMTQsNS4xNzM3VjU3Ljg4MTlIMjYuMzcyOWMwLTUuMjk3NiwwLTEyLjM4Myw3LjIxMy0xMi4zMTEyQzQwLjM2ODYsNDUuNjM4MiwzOS43NzkyLDUyLjU4NDMsMzkuNzc5Miw1Ny44ODE5WiIgZmlsbD0iIzkyZDNmNSIvPiYjeGE7ICAgIDxwYXRoIGQ9Ik0zOS4wNTQyLDUxLjA5OTJjMS43MzU5LDEuNzM1OSwxLjExLDQuMTMzOSwxLjExLDYuNzgyN0g1Mi43N1Y0My44NzEzYzUuODE1NywxLjAzNTcsMTAuOTk2OCwzLjYwNDUsMTAuOTk2OC01LjIxMzcsMC01LjI5NzYtNC45NzQzLTYuMTkzNC0xMC4yNzE5LTYuMTkzNFYxOS44MTU0SDQ5LjM3ODgiIGZpbGw9IiM2MWIyZTQiLz4mI3hhOyAgPC9nPiYjeGE7ICA8ZyBpZD0ibGluZSI+JiN4YTsgICAgPHBvbHlsaW5lIHBvaW50cz0iMTQuNDAyIDMzLjUyNCAxNC40MDIgMTkuNTEzIDI5LjYyOCAxOS41MTMiIGZpbGw9Im5vbmUiIHN0cm9rZT0iIzAwMCIgc3Ryb2tlLWxpbmVjYXA9InJvdW5kIiBzdHJva2UtbGluZWpvaW49InJvdW5kIiBzdHJva2Utd2lkdGg9IjIiLz4mI3hhOyAgICA8cG9seWxpbmUgcG9pbnRzPSIyOCA1Ny44ODIgMTQuNDAyIDU3Ljg4MiAxNC40MDIgNDMuODcxIiBmaWxsPSJub25lIiBzdHJva2U9IiMwMDAiIHN0cm9rZS1saW5lY2FwPSJyb3VuZCIgc3Ryb2tlLWxpbmVqb2luPSJyb3VuZCIgc3Ryb2tlLXdpZHRoPSIyIi8+JiN4YTsgICAgPHBvbHlsaW5lIHBvaW50cz0iNTIuNzcgNDMuODcxIDUyLjc3IDU3Ljg4MiAzOC4zNDggNTcuODgyIiBmaWxsPSJub25lIiBzdHJva2U9IiMwMDAiIHN0cm9rZS1saW5lY2FwPSJyb3VuZCIgc3Ryb2tlLWxpbmVqb2luPSJyb3VuZCIgc3Ryb2tlLXdpZHRoPSIyIi8+JiN4YTsgICAgPHBvbHlsaW5lIHBvaW50cz0iMzkuOTc2IDE5LjUxMyA1Mi43NyAxOS41MTMgNTIuNzcgMzMuNTI0IiBmaWxsPSJub25lIiBzdHJva2U9IiMwMDAiIHN0cm9rZS1saW5lY2FwPSJyb3VuZCIgc3Ryb2tlLWxpbmVqb2luPSJyb3VuZCIgc3Ryb2tlLXdpZHRoPSIyIi8+JiN4YTsgICAgPGc+JiN4YTsgICAgICA8cGF0aCBkPSJNMTQuNDAxNiwzMy41MjM5YzIuNjgxMy0yLjM0MTMsMTEuNjMxNC0zLjI4NzMsMTEuNjMxNCw1LjE3MzciIGZpbGw9Im5vbmUiIHN0cm9rZT0iIzAwMCIgc3Ryb2tlLWxpbmVjYXA9InJvdW5kIiBzdHJva2UtbGluZWpvaW49InJvdW5kIiBzdHJva2Utd2lkdGg9IjIiLz4mI3hhOyAgICAgIDxwYXRoIGQ9Ik0xNC40MDE2LDQzLjg3MTNjMi42ODEzLDIuMzQxMywxMS42MzE0LDMuMjg3MywxMS42MzE0LTUuMTczNyIgZmlsbD0ibm9uZSIgc3Ryb2tlPSIjMDAwIiBzdHJva2UtbGluZWNhcD0icm91bmQiIHN0cm9rZS1saW5lam9pbj0icm91bmQiIHN0cm9rZS13aWR0aD0iMiIvPiYjeGE7ICAgIDwvZz4mI3hhOyAgICA8Zz4mI3hhOyAgICAgIDxwYXRoIGQ9Ik0yOC4wMDA1LDU3Ljg4MTljLTIuMzQxNC0yLjY4MTQtMy4yODczLTExLjYzMTQsNS4xNzM3LTExLjYzMTQiIGZpbGw9Im5vbmUiIHN0cm9rZT0iIzAwMCIgc3Ryb2tlLWxpbmVjYXA9InJvdW5kIiBzdHJva2UtbGluZWpvaW49InJvdW5kIiBzdHJva2Utd2lkdGg9IjIiLz4mI3hhOyAgICAgIDxwYXRoIGQ9Ik0zOC4zNDc5LDU3Ljg4MTljMi4zNDEzLTIuNjgxNCwzLjI4NzMtMTEuNjMxNC01LjE3MzctMTEuNjMxNCIgZmlsbD0ibm9uZSIgc3Ryb2tlPSIjMDAwIiBzdHJva2UtbGluZWNhcD0icm91bmQiIHN0cm9rZS1saW5lam9pbj0icm91bmQiIHN0cm9rZS13aWR0aD0iMiIvPiYjeGE7ICAgIDwvZz4mI3hhOyAgICA8Zz4mI3hhOyAgICAgIDxwYXRoIGQ9Ik0yOS42MjgxLDE5LjUxMzNjLTIuMzQxNC0yLjY4MTQtMy4yODczLTExLjYzMTQsNS4xNzM3LTExLjYzMTQiIGZpbGw9Im5vbmUiIHN0cm9rZT0iIzAwMCIgc3Ryb2tlLWxpbmVjYXA9InJvdW5kIiBzdHJva2UtbGluZWpvaW49InJvdW5kIiBzdHJva2Utd2lkdGg9IjIiLz4mI3hhOyAgICAgIDxwYXRoIGQ9Ik0zOS45NzU1LDE5LjUxMzNjMi4zNDEzLTIuNjgxNCwzLjI4NzMtMTEuNjMxNC01LjE3MzctMTEuNjMxNCIgZmlsbD0ibm9uZSIgc3Ryb2tlPSIjMDAwIiBzdHJva2UtbGluZWNhcD0icm91bmQiIHN0cm9rZS1saW5lam9pbj0icm91bmQiIHN0cm9rZS13aWR0aD0iMiIvPiYjeGE7ICAgIDwvZz4mI3hhOyAgICA8Zz4mI3hhOyAgICAgIDxwYXRoIGQ9Ik01Mi43Nyw0My44NzEzYzIuNjgxMywyLjM0MTMsMTEuNjMxNCwzLjI4NzMsMTEuNjMxNC01LjE3MzciIGZpbGw9Im5vbmUiIHN0cm9rZT0iIzAwMCIgc3Ryb2tlLWxpbmVjYXA9InJvdW5kIiBzdHJva2UtbGluZWpvaW49InJvdW5kIiBzdHJva2Utd2lkdGg9IjIiLz4mI3hhOyAgICAgIDxwYXRoIGQ9Ik01Mi43NywzMy41MjM5YzIuNjgxMy0yLjM0MTMsMTEuNjMxNC0zLjI4NzMsMTEuNjMxNCw1LjE3MzciIGZpbGw9Im5vbmUiIHN0cm9rZT0iIzAwMCIgc3Ryb2tlLWxpbmVjYXA9InJvdW5kIiBzdHJva2UtbGluZWpvaW49InJvdW5kIiBzdHJva2Utd2lkdGg9IjIiLz4mI3hhOyAgICA8L2c+JiN4YTsgIDwvZz4mI3hhOzwvc3ZnPg==;" vertex="1" parent="1">
          <mxGeometry x="752" y="-402.75" width="48.5" height="48.5" as="geometry" />
        </mxCell>
      </root>
    </mxGraphModel>
  </diagram>
</mxfile>
